<svg width="988" height="505" viewBox="0 0 988 505" fill="none" xmlns="http://www.w3.org/2000/svg">
<path d="M181.436 91C180.036 91 179.336 90.6667 179.336 90C179.336 89.4 180.036 88.9 181.436 88.5C183.903 87.7 186.303 85.8 188.636 82.8C190.969 79.8 193.236 76.3333 195.436 72.4C198.703 66.6 206.503 51.7667 218.836 27.9C219.769 26.2333 220.236 24.6333 220.236 23.1C220.236 22.5 220.203 22.0333 220.136 21.7V21.2C220.136 20.2 220.536 19.3 221.336 18.5C223.069 17.2333 225.736 15.6667 229.336 13.8C229.736 13.4667 230.169 13.3 230.636 13.3C231.169 13.3 231.436 13.6667 231.436 14.4L232.736 56.2C232.936 62.2667 233.403 70.2333 234.136 80.1C234.603 84.9667 236.369 87.7333 239.436 88.4C240.636 88.6667 241.236 89.1333 241.236 89.8C241.236 90.6 240.369 90.9667 238.636 90.9C237.369 90.7667 235.969 90.6333 234.436 90.5C232.969 90.3667 231.069 90.3 228.736 90.3C227.003 90.3 224.469 90.4333 221.136 90.7C219.869 90.7667 218.603 90.8333 217.336 90.9C216.136 90.9667 214.903 91 213.636 91C213.036 91 212.569 90.9 212.236 90.7C211.903 90.5 211.736 90.2667 211.736 90C211.736 89.6667 211.903 89.3667 212.236 89.1C212.569 88.8333 213.103 88.6667 213.836 88.6C217.569 88.2667 220.136 87.4667 221.536 86.2C222.936 84.9333 223.636 82.8667 223.636 80L223.236 66.4C223.169 65.5333 222.869 64.9667 222.336 64.7C221.869 64.3667 221.069 64.2 219.936 64.2H205.536C204.869 64.2 204.336 64.3 203.936 64.5C203.536 64.7 203.136 65.1667 202.736 65.9C201.269 68.3667 200.136 70.4333 199.336 72.1C197.336 76.2333 196.336 79.7 196.336 82.5C196.336 85.9667 197.936 88 201.136 88.6C202.403 88.8667 203.036 89.2667 203.036 89.8C203.036 90.6 202.303 91 200.836 91C199.236 91 197.236 90.8667 194.836 90.6C194.036 90.5333 193.236 90.4667 192.436 90.4C191.636 90.3333 190.803 90.3 189.936 90.3C188.736 90.3 186.636 90.4667 183.636 90.8L181.436 91ZM219.336 61.2C221.669 61.2 222.836 60.2 222.836 58.2L222.736 54.3C222.536 44.4333 222.336 37.5333 222.136 33.6C222.136 32.8 222.069 32.2333 221.936 31.9C221.803 31.5667 221.603 31.3667 221.336 31.3C220.869 31.3 220.336 31.8667 219.736 33C217.469 37.2667 215.503 41.0667 213.836 44.4L206.436 58.7C206.169 59.3667 206.036 59.8 206.036 60C206.036 60.8 206.603 61.2 207.736 61.2H219.336ZM253.969 113.5C250.169 113.5 247.035 112.733 244.569 111.2C242.102 109.667 240.869 107.6 240.869 105C240.869 103.533 241.202 102.2 241.869 101C242.535 99.8667 243.235 98.9667 243.969 98.3C244.635 97.7 245.869 96.6667 247.669 95.2C248.535 94.5333 248.969 93.9333 248.969 93.4C248.969 93.2 248.602 92.8333 247.869 92.3C247.202 91.7667 246.769 91.4 246.569 91.2C245.369 90.1333 244.769 88.7333 244.769 87C244.769 84.1333 245.902 81.7667 248.169 79.9C250.435 77.9667 253.469 76.2 257.269 74.6C258.602 74 259.269 73.2667 259.269 72.4C259.269 71.7333 258.835 70.9667 257.969 70.1C255.435 67.4333 254.169 64.2333 254.169 60.5C254.169 59.1 254.369 57.5667 254.769 55.9C256.102 50.5 258.902 46.1667 263.169 42.9C267.502 39.6333 272.569 38 278.369 38C280.769 38 282.802 38.2333 284.469 38.7C286.135 39.1667 287.802 39.8667 289.469 40.8C290.269 41.2667 291.069 41.7 291.869 42.1C292.669 42.5 293.402 42.7 294.069 42.7C294.669 42.7 295.202 42.5667 295.669 42.3C296.202 42.0333 296.935 41.4667 297.869 40.6C299.335 39.2667 300.302 38.4333 300.769 38.1C301.302 37.7 301.969 37.5 302.769 37.5C303.835 37.5 304.835 38.2 305.769 39.6C306.702 40.9333 307.169 42.1667 307.169 43.3C307.169 44.6333 306.369 45.3 304.769 45.3C303.835 45.3 302.769 45.1333 301.569 44.8C301.035 44.6667 300.502 44.5667 299.969 44.5C299.435 44.3667 298.935 44.3 298.469 44.3H297.869C297.069 44.3 296.335 44.5333 295.669 45C295.069 45.4667 294.669 46.2 294.469 47.2C294.335 48.1333 294.269 49.4 294.269 51C294.269 53.0667 294.102 54.7667 293.769 56.1C292.369 61.8333 289.402 66.4 284.869 69.8C280.402 73.2 274.735 74.9667 267.869 75.1C259.002 75.1667 254.035 77.4333 252.969 81.9C252.902 82.2333 252.835 82.6 252.769 83C252.769 83.8 253.035 84.4333 253.569 84.9C254.169 85.3667 255.002 85.6 256.069 85.6C256.869 85.6 258.835 85.1333 261.969 84.2C265.435 83.1333 268.502 82.3 271.169 81.7C273.835 81.1 276.535 80.8 279.269 80.8C282.802 80.8 285.569 81.5667 287.569 83.1C289.635 84.6333 290.669 86.6667 290.669 89.2C290.669 89.9333 290.569 90.7 290.369 91.5C289.502 95.3 287.135 98.9 283.269 102.3C279.469 105.7 274.902 108.4 269.569 110.4C264.235 112.467 259.035 113.5 253.969 113.5ZM260.169 106.3C264.102 106.3 267.902 105.767 271.569 104.7C275.235 103.7 278.235 102.367 280.569 100.7C282.969 99.0333 284.335 97.3 284.669 95.5C284.735 95.1667 284.769 94.7333 284.769 94.2C284.769 92.5333 284.102 91.2333 282.769 90.3C281.435 89.3 279.502 88.8 276.969 88.8C273.902 88.8 270.102 89.2667 265.569 90.2C261.102 91.1333 257.169 92.2 253.769 93.4C252.302 94 250.969 95.0333 249.769 96.5C248.569 97.9667 247.969 99.3667 247.969 100.7C247.969 102.7 249.069 104.167 251.269 105.1C253.469 106.033 256.435 106.433 260.169 106.3ZM270.469 71.9C273.202 71.9 275.769 70.6333 278.169 68.1C280.635 65.5667 282.535 61.6333 283.869 56.3C284.469 53.7 284.769 51.4667 284.769 49.6C284.769 46.7333 284.135 44.5667 282.869 43.1C281.669 41.5667 279.969 40.8 277.769 40.8C275.102 40.8 272.635 42.1333 270.369 44.8C268.102 47.4667 266.335 51.3 265.069 56.3C264.402 58.9667 264.069 61.4 264.069 63.6C264.069 66.3333 264.635 68.4 265.769 69.8C266.902 71.2 268.469 71.9 270.469 71.9ZM310.238 92.5C308.104 92.5 307.038 91.3333 307.038 89C307.038 87.4 307.571 85.2 308.638 82.4C311.371 75.6 313.438 70.1667 314.838 66.1C316.238 62.0333 317.204 58.9333 317.738 56.8C318.271 54.6 318.671 52.8 318.938 51.4C319.071 50.4667 319.138 49.8333 319.138 49.5C319.138 47.7 318.571 46.8 317.438 46.8C316.638 46.8 315.638 47.3 314.438 48.3C313.238 49.2333 311.971 50.4333 310.638 51.9C309.371 53.3667 308.238 54.6667 307.238 55.8C306.638 56.4 306.104 56.7 305.638 56.7C305.171 56.7 304.938 56.4 304.938 55.8C304.938 55.1333 306.071 53.3333 308.338 50.4C310.671 47.4 313.338 44.6667 316.338 42.2C319.338 39.7333 322.071 38.5 324.538 38.5C327.538 38.5 329.038 40.4667 329.038 44.4C329.038 46.4 328.538 49.1 327.538 52.5C326.338 56.6333 324.871 60.9 323.138 65.3C322.938 65.7667 322.838 66.1667 322.838 66.5C322.838 67.0333 323.071 67.3 323.538 67.3C324.404 67.3 325.804 65.5667 327.738 62.1C331.738 54.5 335.404 48.5333 338.738 44.2C342.071 39.8667 345.404 37.7 348.738 37.7C350.471 37.7 351.838 38.2667 352.838 39.4C353.904 40.5333 354.438 42 354.438 43.8C354.438 44.3333 354.304 45.2 354.038 46.4C353.438 48.5333 352.571 50.2 351.438 51.4C350.371 52.5333 349.271 53.1 348.138 53.1C346.671 53.1 345.738 51.9 345.338 49.5C345.204 48.5 345.004 47.7667 344.738 47.3C344.471 46.8333 343.938 46.6 343.138 46.6C342.338 46.6 341.438 47.0667 340.438 48C339.438 48.8667 337.971 50.7 336.038 53.5C334.104 56.3 331.404 60.5667 327.938 66.3C325.404 70.5 323.338 74 321.738 76.8C320.204 79.5333 318.704 82.4667 317.238 85.6C316.038 88.1333 314.904 89.9333 313.838 91C312.771 92 311.571 92.5 310.238 92.5ZM363.936 92.6C359.669 92.6 356.236 91.3667 353.636 88.9C351.103 86.3667 349.836 82.6333 349.836 77.7C349.836 74.7667 350.336 71.4 351.336 67.6C352.603 62.7333 354.669 58.0333 357.536 53.5C360.403 48.9667 363.836 45.2667 367.836 42.4C371.903 39.4667 376.269 38 380.936 38C385.203 38 388.603 39.3 391.136 41.9C393.736 44.4333 395.036 48.1667 395.036 53.1C395.036 55.9667 394.536 59.2667 393.536 63C392.203 67.8667 390.103 72.5667 387.236 77.1C384.369 81.6333 380.903 85.3667 376.836 88.3C372.836 91.1667 368.536 92.6 363.936 92.6ZM364.736 89.9C367.336 89.9 370.036 88.1 372.836 84.5C375.636 80.9 378.136 76.5333 380.336 71.4C382.603 66.2 384.203 61.4667 385.136 57.2C385.736 54.4667 386.036 52.0667 386.036 50C386.036 47 385.503 44.7 384.436 43.1C383.369 41.5 381.969 40.7 380.236 40.7C377.569 40.7 374.769 42.5333 371.836 46.2C368.969 49.8667 366.403 54.3333 364.136 59.6C361.869 64.8667 360.303 69.7333 359.436 74.2C358.969 76.4667 358.736 78.6 358.736 80.6C358.736 83.6 359.269 85.9 360.336 87.5C361.403 89.1 362.869 89.9 364.736 89.9ZM412.138 92.5C408.205 92.5 405.105 91.2333 402.838 88.7C400.572 86.1 399.438 82.5333 399.438 78C399.438 75.3333 399.905 72.3 400.838 68.9C402.638 62.7 405.305 57.2667 408.838 52.6C412.372 47.8667 416.238 44.2667 420.438 41.8C424.638 39.2667 428.572 38 432.238 38C435.705 38 438.405 38.9667 440.338 40.9C442.338 42.8333 443.338 45.3333 443.338 48.4C443.338 49.4667 443.172 50.6667 442.838 52C442.172 54.6667 441.105 56.6333 439.638 57.9C438.172 59.1667 435.805 60.2 432.538 61C427.805 62.1333 424.405 62.9 422.338 63.3L416.038 64.8C414.105 65.2667 412.605 66.0667 411.538 67.2C410.472 68.2667 409.772 69.7333 409.438 71.6C409.038 73.4 408.838 75.0333 408.838 76.5C408.838 79.3667 409.505 81.6 410.838 83.2C412.238 84.8 414.172 85.6 416.638 85.6C418.972 85.6 421.505 84.9 424.238 83.5C427.038 82.1 429.772 79.9 432.438 76.9C432.972 76.2333 433.505 75.9 434.038 75.9C434.638 75.9 434.938 76.2 434.938 76.8C434.938 77.2 434.738 77.7 434.338 78.3C431.405 82.5 427.905 85.9333 423.838 88.6C419.838 91.2 415.938 92.5 412.138 92.5ZM418.238 61.8C421.305 61.3333 424.338 60.5 427.338 59.3C429.072 58.5667 430.472 57.6333 431.538 56.5C432.605 55.3667 433.438 53.7333 434.038 51.6C434.438 50.0667 434.638 48.7 434.638 47.5C434.638 45.7 434.172 44.3 433.238 43.3C432.372 42.3 431.172 41.8 429.638 41.8C427.038 41.8 424.305 42.9333 421.438 45.2C418.572 47.4667 416.505 50.4 415.238 54C414.505 55.8 414.138 57.4 414.138 58.8C414.138 61.2 415.505 62.2 418.238 61.8ZM425.538 33.1C425.272 33.3 424.972 33.4 424.638 33.4C424.372 33.4 424.138 33.3 423.938 33.1C423.805 32.9 423.738 32.6333 423.738 32.3C423.738 31.8333 423.905 31.4333 424.238 31.1C426.438 29.2333 428.438 27.3333 430.238 25.4C432.105 23.4 433.772 21.6 435.238 20C437.638 17.2 439.505 15.1667 440.838 13.9C441.838 13.1 442.772 12.7 443.638 12.7C444.772 12.7 445.738 13.2 446.538 14.2C447.405 15.2 447.838 16.3 447.838 17.5C447.838 19.1 447.138 20.3667 445.738 21.3C444.405 22.2333 441.772 23.7333 437.838 25.8C434.905 27.3333 432.538 28.6 430.738 29.6C429.005 30.6 427.272 31.7667 425.538 33.1ZM456.66 92.5C452.993 92.5 450.027 91.2333 447.76 88.7C445.493 86.1 444.36 82.5667 444.36 78.1C444.36 75.5667 444.827 72.6 445.76 69.2C447.56 62.9333 450.193 57.4333 453.66 52.7C457.127 47.9667 460.927 44.3333 465.06 41.8C469.193 39.2667 473.16 38 476.96 38C480.093 38 482.493 38.6667 484.16 40C485.827 41.3333 486.66 42.8333 486.66 44.5C486.66 45.0333 486.627 45.4 486.56 45.6C486.227 46.9333 485.527 48.0333 484.46 48.9C483.46 49.7667 482.327 50.2 481.06 50.2C479.793 50.2 478.927 49.8667 478.46 49.2C477.993 48.5333 477.56 47.4667 477.16 46C476.76 44.5333 476.327 43.4667 475.86 42.8C475.393 42.1333 474.56 41.8 473.36 41.8C471.627 41.8 469.66 42.7 467.46 44.5C465.26 46.2333 463.06 49.0667 460.86 53C458.727 56.8667 456.893 61.8 455.36 67.8C454.493 71.2 454.06 74.1333 454.06 76.6C454.06 79.6667 454.693 81.9333 455.96 83.4C457.227 84.8667 458.893 85.6 460.96 85.6C463.16 85.6 465.227 85 467.16 83.8C469.16 82.6 470.593 81.5333 471.46 80.6C472.327 79.6 473.627 78.0667 475.36 76C475.96 75.2667 476.46 74.9 476.86 74.9C477.127 74.9 477.327 75 477.46 75.2C477.66 75.4 477.76 75.6333 477.76 75.9C477.76 76.4333 476.693 78.1667 474.56 81.1C472.427 83.9667 469.76 86.6 466.56 89C463.427 91.3333 460.127 92.5 456.66 92.5ZM499.385 92.6C495.118 92.6 491.685 91.3667 489.085 88.9C486.552 86.3667 485.285 82.6333 485.285 77.7C485.285 74.7667 485.785 71.4 486.785 67.6C488.052 62.7333 490.118 58.0333 492.985 53.5C495.852 48.9667 499.285 45.2667 503.285 42.4C507.352 39.4667 511.718 38 516.385 38C520.652 38 524.052 39.3 526.585 41.9C529.185 44.4333 530.485 48.1667 530.485 53.1C530.485 55.9667 529.985 59.2667 528.985 63C527.652 67.8667 525.552 72.5667 522.685 77.1C519.818 81.6333 516.352 85.3667 512.285 88.3C508.285 91.1667 503.985 92.6 499.385 92.6ZM500.185 89.9C502.785 89.9 505.485 88.1 508.285 84.5C511.085 80.9 513.585 76.5333 515.785 71.4C518.052 66.2 519.652 61.4667 520.585 57.2C521.185 54.4667 521.485 52.0667 521.485 50C521.485 47 520.952 44.7 519.885 43.1C518.818 41.5 517.418 40.7 515.685 40.7C513.018 40.7 510.218 42.5333 507.285 46.2C504.418 49.8667 501.852 54.3333 499.585 59.6C497.318 64.8667 495.752 69.7333 494.885 74.2C494.418 76.4667 494.185 78.6 494.185 80.6C494.185 83.6 494.718 85.9 495.785 87.5C496.852 89.1 498.318 89.9 500.185 89.9ZM537.888 92.4C534.954 92.4 533.488 90.9333 533.488 88C533.488 85.8 534.288 82.4 535.888 77.8C539.221 68.2667 543.721 55.9667 549.388 40.9C553.654 29.3667 556.088 22.4667 556.688 20.2C556.821 19.8 556.888 19.2667 556.888 18.6C556.888 16.3333 555.521 14.9667 552.788 14.5C552.254 14.4333 551.821 14.3 551.488 14.1C551.154 13.8333 550.988 13.5667 550.988 13.3C550.988 13.0333 551.188 12.7667 551.588 12.5C552.054 12.2333 552.621 12.0667 553.288 12C558.821 11.3333 563.121 10.2667 566.188 8.8C566.854 8.53333 567.354 8.33333 567.688 8.19999C568.088 8.06666 568.421 8 568.688 8C569.354 8 569.688 8.33333 569.688 8.99999C569.621 9.33333 569.554 9.66666 569.488 9.99999C568.154 14.2667 564.454 24.6333 558.388 41.1C552.254 57.8333 548.121 69.3 545.988 75.5C545.121 78.0333 544.688 79.9 544.688 81.1C544.688 82.7 545.288 83.5 546.488 83.5C547.688 83.5 549.221 82.7 551.088 81.1C553.021 79.5 555.054 77.6333 557.188 75.5C557.721 74.9667 558.221 74.7 558.688 74.7C559.088 74.7 559.288 74.9333 559.288 75.4C559.288 75.7333 559.088 76.2 558.688 76.8C556.021 80.5333 552.654 84.0667 548.588 87.4C544.588 90.7333 541.021 92.4 537.888 92.4ZM579.268 92.6C575.001 92.6 571.568 91.3667 568.968 88.9C566.435 86.3667 565.168 82.6333 565.168 77.7C565.168 74.7667 565.668 71.4 566.668 67.6C567.935 62.7333 570.001 58.0333 572.868 53.5C575.735 48.9667 579.168 45.2667 583.168 42.4C587.235 39.4667 591.601 38 596.268 38C600.535 38 603.935 39.3 606.468 41.9C609.068 44.4333 610.368 48.1667 610.368 53.1C610.368 55.9667 609.868 59.2667 608.868 63C607.535 67.8667 605.435 72.5667 602.568 77.1C599.701 81.6333 596.235 85.3667 592.168 88.3C588.168 91.1667 583.868 92.6 579.268 92.6ZM580.068 89.9C582.668 89.9 585.368 88.1 588.168 84.5C590.968 80.9 593.468 76.5333 595.668 71.4C597.935 66.2 599.535 61.4667 600.468 57.2C601.068 54.4667 601.368 52.0667 601.368 50C601.368 47 600.835 44.7 599.768 43.1C598.701 41.5 597.301 40.7 595.568 40.7C592.901 40.7 590.101 42.5333 587.168 46.2C584.301 49.8667 581.735 54.3333 579.468 59.6C577.201 64.8667 575.635 69.7333 574.768 74.2C574.301 76.4667 574.068 78.6 574.068 80.6C574.068 83.6 574.601 85.9 575.668 87.5C576.735 89.1 578.201 89.9 580.068 89.9ZM620.277 113.5C616.477 113.5 613.344 112.733 610.877 111.2C608.411 109.667 607.177 107.6 607.177 105C607.177 103.533 607.511 102.2 608.177 101C608.844 99.8667 609.544 98.9667 610.277 98.3C610.944 97.7 612.177 96.6667 613.977 95.2C614.844 94.5333 615.277 93.9333 615.277 93.4C615.277 93.2 614.911 92.8333 614.177 92.3C613.511 91.7667 613.077 91.4 612.877 91.2C611.677 90.1333 611.077 88.7333 611.077 87C611.077 84.1333 612.211 81.7667 614.477 79.9C616.744 77.9667 619.777 76.2 623.577 74.6C624.911 74 625.577 73.2667 625.577 72.4C625.577 71.7333 625.144 70.9667 624.277 70.1C621.744 67.4333 620.477 64.2333 620.477 60.5C620.477 59.1 620.677 57.5667 621.077 55.9C622.411 50.5 625.211 46.1667 629.477 42.9C633.811 39.6333 638.877 38 644.677 38C647.077 38 649.111 38.2333 650.777 38.7C652.444 39.1667 654.111 39.8667 655.777 40.8C656.577 41.2667 657.377 41.7 658.177 42.1C658.977 42.5 659.711 42.7 660.377 42.7C660.977 42.7 661.511 42.5667 661.977 42.3C662.511 42.0333 663.244 41.4667 664.177 40.6C665.644 39.2667 666.611 38.4333 667.077 38.1C667.611 37.7 668.277 37.5 669.077 37.5C670.144 37.5 671.144 38.2 672.077 39.6C673.011 40.9333 673.477 42.1667 673.477 43.3C673.477 44.6333 672.677 45.3 671.077 45.3C670.144 45.3 669.077 45.1333 667.877 44.8C667.344 44.6667 666.811 44.5667 666.277 44.5C665.744 44.3667 665.244 44.3 664.777 44.3H664.177C663.377 44.3 662.644 44.5333 661.977 45C661.377 45.4667 660.977 46.2 660.777 47.2C660.644 48.1333 660.577 49.4 660.577 51C660.577 53.0667 660.411 54.7667 660.077 56.1C658.677 61.8333 655.711 66.4 651.177 69.8C646.711 73.2 641.044 74.9667 634.177 75.1C625.311 75.1667 620.344 77.4333 619.277 81.9C619.211 82.2333 619.144 82.6 619.077 83C619.077 83.8 619.344 84.4333 619.877 84.9C620.477 85.3667 621.311 85.6 622.377 85.6C623.177 85.6 625.144 85.1333 628.277 84.2C631.744 83.1333 634.811 82.3 637.477 81.7C640.144 81.1 642.844 80.8 645.577 80.8C649.111 80.8 651.877 81.5667 653.877 83.1C655.944 84.6333 656.977 86.6667 656.977 89.2C656.977 89.9333 656.877 90.7 656.677 91.5C655.811 95.3 653.444 98.9 649.577 102.3C645.777 105.7 641.211 108.4 635.877 110.4C630.544 112.467 625.344 113.5 620.277 113.5ZM626.477 106.3C630.411 106.3 634.211 105.767 637.877 104.7C641.544 103.7 644.544 102.367 646.877 100.7C649.277 99.0333 650.644 97.3 650.977 95.5C651.044 95.1667 651.077 94.7333 651.077 94.2C651.077 92.5333 650.411 91.2333 649.077 90.3C647.744 89.3 645.811 88.8 643.277 88.8C640.211 88.8 636.411 89.2667 631.877 90.2C627.411 91.1333 623.477 92.2 620.077 93.4C618.611 94 617.277 95.0333 616.077 96.5C614.877 97.9667 614.277 99.3667 614.277 100.7C614.277 102.7 615.377 104.167 617.577 105.1C619.777 106.033 622.744 106.433 626.477 106.3ZM636.777 71.9C639.511 71.9 642.077 70.6333 644.477 68.1C646.944 65.5667 648.844 61.6333 650.177 56.3C650.777 53.7 651.077 51.4667 651.077 49.6C651.077 46.7333 650.444 44.5667 649.177 43.1C647.977 41.5667 646.277 40.8 644.077 40.8C641.411 40.8 638.944 42.1333 636.677 44.8C634.411 47.4667 632.644 51.3 631.377 56.3C630.711 58.9667 630.377 61.4 630.377 63.6C630.377 66.3333 630.944 68.4 632.077 69.8C633.211 71.2 634.777 71.9 636.777 71.9ZM675.746 92.4C672.879 92.4 671.446 90.9 671.446 87.9C671.446 85.8333 672.146 83.0667 673.546 79.6L678.446 68.2C680.979 62.6 683.346 57.1333 685.546 51.8C686.079 50.5333 686.346 49.5 686.346 48.7C686.346 47.6333 685.879 47.1 684.946 47.1C684.213 47.1 683.046 47.6 681.446 48.6C679.913 49.6 678.213 50.9667 676.346 52.7C675.879 53.1667 675.446 53.5333 675.046 53.8C674.713 54.0667 674.379 54.2 674.046 54.2C673.513 54.2 673.246 53.9333 673.246 53.4C673.246 52.9333 673.446 52.5 673.846 52.1C677.046 48.5 680.713 45.3333 684.846 42.6C688.979 39.8667 692.179 38.5 694.446 38.5C696.913 38.5 698.146 39.5667 698.146 41.7C698.146 43.3 697.413 45.7667 695.946 49.1L691.146 59.5C689.479 63.0333 688.079 66.0667 686.946 68.6C685.813 71.1333 684.713 73.8333 683.646 76.7C682.913 78.5 682.546 80.0667 682.546 81.4C682.546 83.0667 683.213 83.9 684.546 83.9C685.413 83.9 686.413 83.5 687.546 82.7C688.746 81.9 689.946 80.9 691.146 79.7C692.413 78.5 693.513 77.4667 694.446 76.6C694.779 76.2667 695.079 76 695.346 75.8C695.679 75.5333 695.979 75.4 696.246 75.4C696.646 75.4 696.846 75.6333 696.846 76.1C696.846 76.5 696.713 76.8667 696.446 77.2C695.113 79.1333 693.279 81.3 690.946 83.7C688.613 86.0333 686.079 88.0667 683.346 89.8C680.613 91.5333 678.079 92.4 675.746 92.4ZM696.946 32.5C695.413 32.5 694.146 32.0333 693.146 31.1C692.213 30.1667 691.746 28.9667 691.746 27.5C691.746 25.5 692.613 23.6667 694.346 22C696.146 20.3333 698.079 19.5 700.146 19.5C701.613 19.5 702.813 20 703.746 21C704.746 21.9333 705.246 23.1 705.246 24.5C705.246 26.5 704.346 28.3333 702.546 30C700.813 31.6667 698.946 32.5 696.946 32.5ZM715.361 92.5C711.428 92.5 708.328 91.2333 706.061 88.7C703.794 86.1 702.661 82.5333 702.661 78C702.661 75.3333 703.128 72.3 704.061 68.9C705.861 62.7 708.528 57.2667 712.061 52.6C715.594 47.8667 719.461 44.2667 723.661 41.8C727.861 39.2667 731.794 38 735.461 38C738.928 38 741.628 38.9667 743.561 40.9C745.561 42.8333 746.561 45.3333 746.561 48.4C746.561 49.4667 746.394 50.6667 746.061 52C745.394 54.6667 744.328 56.6333 742.861 57.9C741.394 59.1667 739.028 60.2 735.761 61C731.028 62.1333 727.628 62.9 725.561 63.3L719.261 64.8C717.328 65.2667 715.828 66.0667 714.761 67.2C713.694 68.2667 712.994 69.7333 712.661 71.6C712.261 73.4 712.061 75.0333 712.061 76.5C712.061 79.3667 712.728 81.6 714.061 83.2C715.461 84.8 717.394 85.6 719.861 85.6C722.194 85.6 724.728 84.9 727.461 83.5C730.261 82.1 732.994 79.9 735.661 76.9C736.194 76.2333 736.728 75.9 737.261 75.9C737.861 75.9 738.161 76.2 738.161 76.8C738.161 77.2 737.961 77.7 737.561 78.3C734.628 82.5 731.128 85.9333 727.061 88.6C723.061 91.2 719.161 92.5 715.361 92.5ZM721.461 61.8C724.528 61.3333 727.561 60.5 730.561 59.3C732.294 58.5667 733.694 57.6333 734.761 56.5C735.828 55.3667 736.661 53.7333 737.261 51.6C737.661 50.0667 737.861 48.7 737.861 47.5C737.861 45.7 737.394 44.3 736.461 43.3C735.594 42.3 734.394 41.8 732.861 41.8C730.261 41.8 727.528 42.9333 724.661 45.2C721.794 47.4667 719.728 50.4 718.461 54C717.728 55.8 717.361 57.4 717.361 58.8C717.361 61.2 718.728 62.2 721.461 61.8ZM288.469 204.4C285.469 204.4 282.769 203.767 280.369 202.5C278.035 201.167 276.169 199.4 274.769 197.2C273.435 194.933 272.769 192.4 272.769 189.6C272.769 188.4 272.935 187.033 273.269 185.5C274.202 181.7 276.169 178.267 279.169 175.2C282.169 172.133 285.935 169.5 290.469 167.3C292.135 166.5 292.969 165.6 292.969 164.6C292.969 164.133 292.835 163.667 292.569 163.2C290.235 159.2 289.069 155.367 289.069 151.7C289.069 150.567 289.235 149.267 289.569 147.8C290.769 143 293.202 139.167 296.869 136.3C300.602 133.367 304.969 131.9 309.969 131.9C313.969 131.9 317.069 132.967 319.269 135.1C321.469 137.233 322.569 139.867 322.569 143C322.569 143.733 322.435 144.767 322.169 146.1C321.435 149.3 320.002 152.167 317.869 154.7C315.735 157.167 312.502 159.467 308.169 161.6L303.569 164.1C298.635 166.7 294.969 168.8 292.569 170.4C290.169 171.933 288.169 173.7 286.569 175.7C285.035 177.633 283.969 180.033 283.369 182.9C283.102 184.367 282.969 185.433 282.969 186.1C282.969 189.433 284.069 192.133 286.269 194.2C288.535 196.267 291.502 197.3 295.169 197.3C297.769 197.3 300.469 196.533 303.269 195C306.069 193.467 309.069 191.033 312.269 187.7C313.469 186.433 314.635 185.8 315.769 185.8C316.569 185.8 317.435 186.167 318.369 186.9L320.069 188.4C323.935 191.733 326.935 194.067 329.069 195.4C331.269 196.733 333.702 197.4 336.369 197.4C339.102 197.4 341.535 196.233 343.669 193.9C345.802 191.567 347.302 188.6 348.169 185C348.902 181.933 349.269 179.167 349.269 176.7C349.269 170.833 347.669 166.067 344.469 162.4C341.269 158.733 337.035 156.9 331.769 156.9C328.902 156.9 326.635 157.533 324.969 158.8C323.369 160 322.569 161.533 322.569 163.4C322.569 165.6 324.235 167.133 327.569 168C329.702 168.533 331.369 169.5 332.569 170.9C333.769 172.233 334.369 173.6 334.369 175C334.369 177.2 333.069 178.3 330.469 178.3C328.535 178.3 326.702 177.733 324.969 176.6C323.302 175.467 321.935 173.933 320.869 172C319.802 170.067 319.269 167.967 319.269 165.7C319.269 164.5 319.402 163.367 319.669 162.3C320.402 159.7 321.702 157.6 323.569 156C325.502 154.333 327.935 153.033 330.869 152.1C333.469 151.3 336.269 150.767 339.269 150.5C342.269 150.233 345.902 150.067 350.169 150C353.769 150 356.669 149.567 358.869 148.7C361.069 147.767 362.469 146 363.069 143.4C363.335 142.4 363.469 141.367 363.469 140.3C363.469 138.367 362.869 136.867 361.669 135.8C360.535 134.733 358.969 134.2 356.969 134.2C355.369 134.2 353.702 134.767 351.969 135.9C350.302 136.967 348.435 138.933 346.369 141.8C345.569 142.933 344.569 143.8 343.369 144.4C342.235 145 341.069 145.3 339.869 145.3C338.602 145.3 337.535 145.033 336.669 144.5C335.869 143.9 335.469 143.133 335.469 142.2C335.469 140.8 336.402 139.4 338.269 138C340.802 136.067 343.702 134.533 346.969 133.4C350.235 132.267 353.369 131.7 356.369 131.7C360.569 131.7 363.935 132.733 366.469 134.8C369.002 136.8 370.269 139.433 370.269 142.7C370.269 143.7 370.035 145.033 369.569 146.7C368.835 149.167 367.502 151.033 365.569 152.3C363.702 153.567 361.369 154.2 358.569 154.2C357.169 154.2 355.402 153.933 353.269 153.4C351.535 153 350.269 152.8 349.469 152.8C348.802 152.8 348.269 152.9 347.869 153.1C347.535 153.3 347.369 153.567 347.369 153.9C347.369 154.433 347.769 155 348.569 155.6C354.235 160.067 357.069 165.6 357.069 172.2C357.069 174.267 356.835 176.233 356.369 178.1C355.369 182.5 353.402 186.733 350.469 190.8C347.602 194.867 344.335 198.167 340.669 200.7C337.002 203.167 333.602 204.4 330.469 204.4C327.669 204.4 325.069 203.7 322.669 202.3C320.269 200.9 317.769 198.967 315.169 196.5C313.635 195.033 312.235 194.3 310.969 194.3C309.969 194.3 308.869 194.8 307.669 195.8C303.602 199 300.202 201.233 297.469 202.5C294.802 203.767 291.802 204.4 288.469 204.4ZM304.269 159.9C306.802 158.033 308.869 155.967 310.469 153.7C312.135 151.367 313.369 148.667 314.169 145.6C314.502 144.067 314.669 142.8 314.669 141.8C314.669 139.533 314.135 137.767 313.069 136.5C312.002 135.233 310.602 134.6 308.869 134.6C306.735 134.6 304.702 135.5 302.769 137.3C300.902 139.1 299.535 141.7 298.669 145.1C298.135 147.233 297.869 149.433 297.869 151.7C297.869 154.3 298.269 156.7 299.069 158.9C299.669 160.5 300.435 161.3 301.369 161.3C302.035 161.3 303.002 160.833 304.269 159.9ZM538.502 204.5C535.769 204.5 533.602 203.5 532.002 201.5C530.402 199.5 529.602 196.667 529.602 193C529.602 190.6 529.936 188.033 530.602 185.3C532.402 177.9 535.102 171.533 538.702 166.2C542.302 160.867 546.269 156.833 550.602 154.1C554.936 151.367 559.069 150 563.002 150C565.069 150 567.069 150.667 569.002 152C569.869 152.533 570.602 152.8 571.202 152.8C572.402 152.8 573.336 151.667 574.002 149.4C576.602 141.667 578.369 135.933 579.302 132.2C579.436 131.4 579.502 130.867 579.502 130.6C579.502 129.467 579.102 128.567 578.302 127.9C577.569 127.167 576.536 126.7 575.202 126.5C574.669 126.433 574.236 126.3 573.902 126.1C573.569 125.833 573.402 125.567 573.402 125.3C573.402 125.033 573.602 124.767 574.002 124.5C574.469 124.233 575.036 124.067 575.702 124C581.036 123.333 585.269 122.267 588.402 120.8C589.669 120.267 590.502 120 590.902 120C591.569 120 591.902 120.367 591.902 121.1L591.702 122C588.702 131 584.736 143.367 579.802 159.1C575.136 173.9 572.036 183.567 570.502 188.1C569.702 190.433 569.302 192.333 569.302 193.8C569.302 195.333 569.836 196.033 570.902 195.9C572.769 195.9 575.902 193.6 580.302 189C580.969 188.333 581.536 188 582.002 188C582.402 188 582.602 188.233 582.602 188.7C582.602 189.1 582.369 189.633 581.902 190.3C579.369 193.9 576.369 197.167 572.902 200.1C569.436 202.967 566.236 204.4 563.302 204.4C560.569 204.4 559.202 202.867 559.202 199.8C559.202 197.333 559.936 194.133 561.402 190.2C561.802 188.867 562.336 187.433 563.002 185.9C563.669 184.367 564.336 182.9 565.002 181.5C565.202 181.1 565.302 180.733 565.302 180.4C565.302 179.867 565.069 179.6 564.602 179.6C564.269 179.6 563.902 179.9 563.502 180.5C563.102 181.1 562.602 181.867 562.002 182.8C557.069 190.6 552.769 196.167 549.102 199.5C545.502 202.833 541.969 204.5 538.502 204.5ZM543.102 197.3C545.236 197.3 547.769 195.933 550.702 193.2C553.636 190.4 556.602 186.767 559.602 182.3C562.269 178.367 564.502 174.3 566.302 170.1C568.102 165.9 569.002 162.367 569.002 159.5C569.002 157.367 568.469 155.733 567.402 154.6C566.402 153.467 565.002 152.9 563.202 152.9C561.002 152.9 558.502 153.933 555.702 156C552.969 158 550.236 161.267 547.502 165.8C544.769 170.267 542.502 175.933 540.702 182.8C539.836 186.2 539.402 189 539.402 191.2C539.402 193.333 539.736 194.9 540.402 195.9C541.136 196.833 542.036 197.3 543.102 197.3ZM600.81 204.5C596.877 204.5 593.777 203.233 591.51 200.7C589.243 198.1 588.11 194.533 588.11 190C588.11 187.333 588.577 184.3 589.51 180.9C591.31 174.7 593.977 169.267 597.51 164.6C601.043 159.867 604.91 156.267 609.11 153.8C613.31 151.267 617.243 150 620.91 150C624.377 150 627.077 150.967 629.01 152.9C631.01 154.833 632.01 157.333 632.01 160.4C632.01 161.467 631.843 162.667 631.51 164C630.843 166.667 629.777 168.633 628.31 169.9C626.843 171.167 624.477 172.2 621.21 173C616.477 174.133 613.077 174.9 611.01 175.3L604.71 176.8C602.777 177.267 601.277 178.067 600.21 179.2C599.143 180.267 598.443 181.733 598.11 183.6C597.71 185.4 597.51 187.033 597.51 188.5C597.51 191.367 598.177 193.6 599.51 195.2C600.91 196.8 602.843 197.6 605.31 197.6C607.643 197.6 610.177 196.9 612.91 195.5C615.71 194.1 618.443 191.9 621.11 188.9C621.643 188.233 622.177 187.9 622.71 187.9C623.31 187.9 623.61 188.2 623.61 188.8C623.61 189.2 623.41 189.7 623.01 190.3C620.077 194.5 616.577 197.933 612.51 200.6C608.51 203.2 604.61 204.5 600.81 204.5ZM606.91 173.8C609.977 173.333 613.01 172.5 616.01 171.3C617.743 170.567 619.143 169.633 620.21 168.5C621.277 167.367 622.11 165.733 622.71 163.6C623.11 162.067 623.31 160.7 623.31 159.5C623.31 157.7 622.843 156.3 621.91 155.3C621.043 154.3 619.843 153.8 618.31 153.8C615.71 153.8 612.977 154.933 610.11 157.2C607.243 159.467 605.177 162.4 603.91 166C603.177 167.8 602.81 169.4 602.81 170.8C602.81 173.2 604.177 174.2 606.91 173.8ZM639.727 204.5C637.327 204.5 635.194 204.1 633.327 203.3C631.527 202.5 630.161 201.533 629.227 200.4C628.227 199.2 627.727 198.033 627.727 196.9C627.727 195.567 628.327 194.367 629.527 193.3C630.727 192.167 631.994 191.6 633.327 191.6C634.194 191.6 634.894 191.9 635.427 192.5C635.961 193.033 636.661 193.967 637.527 195.3C638.661 196.967 639.694 198.2 640.627 199C641.561 199.8 642.827 200.2 644.427 200.2C646.227 200.2 647.794 199.633 649.127 198.5C650.527 197.367 651.494 195.7 652.027 193.5C652.227 192.767 652.327 192.067 652.327 191.4C652.327 189.533 651.894 187.667 651.027 185.8C650.161 183.867 648.794 181.333 646.927 178.2C645.461 175.667 644.361 173.567 643.627 171.9C642.961 170.167 642.627 168.467 642.627 166.8C642.627 165.933 642.794 164.833 643.127 163.5C643.727 161.3 644.961 159.167 646.827 157.1C648.761 154.967 650.994 153.267 653.527 152C656.061 150.667 658.494 150 660.827 150C662.894 150 664.727 150.4 666.327 151.2C667.994 151.933 669.294 152.9 670.227 154.1C671.161 155.3 671.627 156.5 671.627 157.7C671.627 158.167 671.594 158.5 671.527 158.7C671.194 159.967 670.561 161 669.627 161.8C668.694 162.533 667.694 162.9 666.627 162.9C665.827 162.9 665.161 162.633 664.627 162.1C664.161 161.5 663.694 160.633 663.227 159.5C661.561 155.9 659.461 154.1 656.927 154.1C654.927 154.1 653.294 154.733 652.027 156C650.827 157.267 650.227 159.033 650.227 161.3C650.227 162.7 650.527 164.1 651.127 165.5C651.727 166.833 652.694 168.633 654.027 170.9L655.327 173C657.194 176.067 658.494 178.467 659.227 180.2C660.027 181.867 660.427 183.8 660.427 186C660.427 187.333 660.227 188.8 659.827 190.4C659.227 192.467 657.861 194.6 655.727 196.8C653.594 199 651.061 200.833 648.127 202.3C645.261 203.767 642.461 204.5 639.727 204.5ZM676.723 204.4C673.856 204.4 672.423 202.9 672.423 199.9C672.423 197.833 673.123 195.067 674.523 191.6L679.423 180.2C681.956 174.6 684.323 169.133 686.523 163.8C687.056 162.533 687.323 161.5 687.323 160.7C687.323 159.633 686.856 159.1 685.923 159.1C685.189 159.1 684.023 159.6 682.423 160.6C680.889 161.6 679.189 162.967 677.323 164.7C676.856 165.167 676.423 165.533 676.023 165.8C675.689 166.067 675.356 166.2 675.023 166.2C674.489 166.2 674.223 165.933 674.223 165.4C674.223 164.933 674.423 164.5 674.823 164.1C678.023 160.5 681.689 157.333 685.823 154.6C689.956 151.867 693.156 150.5 695.423 150.5C697.889 150.5 699.123 151.567 699.123 153.7C699.123 155.3 698.389 157.767 696.923 161.1L692.123 171.5C690.456 175.033 689.056 178.067 687.923 180.6C686.789 183.133 685.689 185.833 684.623 188.7C683.889 190.5 683.523 192.067 683.523 193.4C683.523 195.067 684.189 195.9 685.523 195.9C686.389 195.9 687.389 195.5 688.523 194.7C689.723 193.9 690.923 192.9 692.123 191.7C693.389 190.5 694.489 189.467 695.423 188.6C695.756 188.267 696.056 188 696.323 187.8C696.656 187.533 696.956 187.4 697.223 187.4C697.623 187.4 697.823 187.633 697.823 188.1C697.823 188.5 697.689 188.867 697.423 189.2C696.089 191.133 694.256 193.3 691.923 195.7C689.589 198.033 687.056 200.067 684.323 201.8C681.589 203.533 679.056 204.4 676.723 204.4ZM697.923 144.5C696.389 144.5 695.123 144.033 694.123 143.1C693.189 142.167 692.723 140.967 692.723 139.5C692.723 137.5 693.589 135.667 695.323 134C697.123 132.333 699.056 131.5 701.123 131.5C702.589 131.5 703.789 132 704.723 133C705.723 133.933 706.223 135.1 706.223 136.5C706.223 138.5 705.323 140.333 703.523 142C701.789 143.667 699.923 144.5 697.923 144.5ZM710.316 225.5C706.516 225.5 703.383 224.733 700.916 223.2C698.45 221.667 697.216 219.6 697.216 217C697.216 215.533 697.55 214.2 698.216 213C698.883 211.867 699.583 210.967 700.316 210.3C700.983 209.7 702.216 208.667 704.016 207.2C704.883 206.533 705.316 205.933 705.316 205.4C705.316 205.2 704.95 204.833 704.216 204.3C703.55 203.767 703.116 203.4 702.916 203.2C701.716 202.133 701.116 200.733 701.116 199C701.116 196.133 702.25 193.767 704.516 191.9C706.783 189.967 709.816 188.2 713.616 186.6C714.95 186 715.616 185.267 715.616 184.4C715.616 183.733 715.183 182.967 714.316 182.1C711.783 179.433 710.516 176.233 710.516 172.5C710.516 171.1 710.716 169.567 711.116 167.9C712.45 162.5 715.25 158.167 719.516 154.9C723.85 151.633 728.916 150 734.716 150C737.116 150 739.15 150.233 740.816 150.7C742.483 151.167 744.15 151.867 745.816 152.8C746.616 153.267 747.416 153.7 748.216 154.1C749.016 154.5 749.75 154.7 750.416 154.7C751.016 154.7 751.55 154.567 752.016 154.3C752.55 154.033 753.283 153.467 754.216 152.6C755.683 151.267 756.65 150.433 757.116 150.1C757.65 149.7 758.316 149.5 759.116 149.5C760.183 149.5 761.183 150.2 762.116 151.6C763.05 152.933 763.516 154.167 763.516 155.3C763.516 156.633 762.716 157.3 761.116 157.3C760.183 157.3 759.116 157.133 757.916 156.8C757.383 156.667 756.85 156.567 756.316 156.5C755.783 156.367 755.283 156.3 754.816 156.3H754.216C753.416 156.3 752.683 156.533 752.016 157C751.416 157.467 751.016 158.2 750.816 159.2C750.683 160.133 750.616 161.4 750.616 163C750.616 165.067 750.45 166.767 750.116 168.1C748.716 173.833 745.75 178.4 741.216 181.8C736.75 185.2 731.083 186.967 724.216 187.1C715.35 187.167 710.383 189.433 709.316 193.9C709.25 194.233 709.183 194.6 709.116 195C709.116 195.8 709.383 196.433 709.916 196.9C710.516 197.367 711.35 197.6 712.416 197.6C713.216 197.6 715.183 197.133 718.316 196.2C721.783 195.133 724.85 194.3 727.516 193.7C730.183 193.1 732.883 192.8 735.616 192.8C739.15 192.8 741.916 193.567 743.916 195.1C745.983 196.633 747.016 198.667 747.016 201.2C747.016 201.933 746.916 202.7 746.716 203.5C745.85 207.3 743.483 210.9 739.616 214.3C735.816 217.7 731.25 220.4 725.916 222.4C720.583 224.467 715.383 225.5 710.316 225.5ZM716.516 218.3C720.45 218.3 724.25 217.767 727.916 216.7C731.583 215.7 734.583 214.367 736.916 212.7C739.316 211.033 740.683 209.3 741.016 207.5C741.083 207.167 741.116 206.733 741.116 206.2C741.116 204.533 740.45 203.233 739.116 202.3C737.783 201.3 735.85 200.8 733.316 200.8C730.25 200.8 726.45 201.267 721.916 202.2C717.45 203.133 713.516 204.2 710.116 205.4C708.65 206 707.316 207.033 706.116 208.5C704.916 209.967 704.316 211.367 704.316 212.7C704.316 214.7 705.416 216.167 707.616 217.1C709.816 218.033 712.783 218.433 716.516 218.3ZM726.816 183.9C729.55 183.9 732.116 182.633 734.516 180.1C736.983 177.567 738.883 173.633 740.216 168.3C740.816 165.7 741.116 163.467 741.116 161.6C741.116 158.733 740.483 156.567 739.216 155.1C738.016 153.567 736.316 152.8 734.116 152.8C731.45 152.8 728.983 154.133 726.716 156.8C724.45 159.467 722.683 163.3 721.416 168.3C720.75 170.967 720.416 173.4 720.416 175.6C720.416 178.333 720.983 180.4 722.116 181.8C723.25 183.2 724.816 183.9 726.816 183.9ZM766.583 204.5C764.383 204.5 763.283 203.367 763.283 201.1C763.283 199.433 763.816 197.2 764.883 194.4C768.749 184.133 771.283 177.067 772.483 173.2C773.683 169.333 774.616 165.967 775.283 163.1L775.483 161.5C775.483 159.7 774.883 158.8 773.683 158.8C772.683 158.8 771.449 159.467 769.983 160.8C768.583 162.133 766.483 164.467 763.683 167.8C763.149 168.4 762.649 168.7 762.183 168.7C761.983 168.7 761.816 168.633 761.683 168.5C761.549 168.3 761.483 168.067 761.483 167.8C761.483 167.133 762.616 165.333 764.883 162.4C767.149 159.4 769.749 156.667 772.683 154.2C775.616 151.733 778.316 150.5 780.783 150.5C782.183 150.5 783.283 151 784.083 152C784.949 153 785.383 154.5 785.383 156.5C785.383 158.5 784.883 161.067 783.883 164.2C782.549 168.4 781.083 172.5 779.483 176.5C779.349 176.9 779.283 177.2 779.283 177.4C779.283 178 779.549 178.3 780.083 178.3C780.616 178.3 781.149 178.033 781.683 177.5C782.283 176.967 783.249 175.8 784.583 174C789.916 166.867 794.849 161.167 799.383 156.9C803.983 152.633 808.216 150.5 812.083 150.5C815.216 150.5 816.783 152.133 816.783 155.4C816.783 157.333 816.183 159.867 814.983 163C814.116 165.267 812.316 169.467 809.583 175.6C806.916 181.6 804.949 186.233 803.683 189.5C803.016 191.1 802.683 192.433 802.683 193.5C802.683 194.967 803.216 195.7 804.283 195.7C805.949 195.7 808.716 193.967 812.583 190.5C813.183 189.967 813.716 189.7 814.183 189.7C814.716 189.7 814.983 189.9 814.983 190.3C814.983 190.7 814.749 191.167 814.283 191.7C812.016 194.7 808.883 197.6 804.883 200.4C800.949 203.133 797.616 204.5 794.883 204.5C793.816 204.5 792.949 204.167 792.283 203.5C791.683 202.833 791.383 201.833 791.383 200.5C791.383 198.633 791.883 196.567 792.883 194.3L794.783 189.9C798.316 181.767 801.516 174.133 804.383 167C805.116 165.133 805.483 163.667 805.483 162.6C805.483 161.2 804.916 160.5 803.783 160.5C802.049 160.5 799.349 162.133 795.683 165.4C792.083 168.667 788.249 172.967 784.183 178.3C782.316 180.833 780.683 183.367 779.283 185.9C777.949 188.367 776.516 191.3 774.983 194.7L773.683 197.6C772.549 200.067 771.416 201.833 770.283 202.9C769.216 203.967 767.983 204.5 766.583 204.5ZM854.518 204.5C851.785 204.5 849.618 203.5 848.018 201.5C846.418 199.5 845.618 196.667 845.618 193C845.618 190.6 845.951 188.033 846.618 185.3C848.418 177.9 851.118 171.533 854.718 166.2C858.318 160.867 862.285 156.833 866.618 154.1C870.951 151.367 875.085 150 879.018 150C881.085 150 883.085 150.667 885.018 152C885.885 152.533 886.618 152.8 887.218 152.8C888.418 152.8 889.351 151.667 890.018 149.4C892.618 141.667 894.385 135.933 895.318 132.2C895.451 131.4 895.518 130.867 895.518 130.6C895.518 129.467 895.118 128.567 894.318 127.9C893.585 127.167 892.551 126.7 891.218 126.5C890.685 126.433 890.251 126.3 889.918 126.1C889.585 125.833 889.418 125.567 889.418 125.3C889.418 125.033 889.618 124.767 890.018 124.5C890.485 124.233 891.051 124.067 891.718 124C897.051 123.333 901.285 122.267 904.418 120.8C905.685 120.267 906.518 120 906.918 120C907.585 120 907.918 120.367 907.918 121.1L907.718 122C904.718 131 900.751 143.367 895.818 159.1C891.151 173.9 888.051 183.567 886.518 188.1C885.718 190.433 885.318 192.333 885.318 193.8C885.318 195.333 885.851 196.033 886.918 195.9C888.785 195.9 891.918 193.6 896.318 189C896.985 188.333 897.551 188 898.018 188C898.418 188 898.618 188.233 898.618 188.7C898.618 189.1 898.385 189.633 897.918 190.3C895.385 193.9 892.385 197.167 888.918 200.1C885.451 202.967 882.251 204.4 879.318 204.4C876.585 204.4 875.218 202.867 875.218 199.8C875.218 197.333 875.951 194.133 877.418 190.2C877.818 188.867 878.351 187.433 879.018 185.9C879.685 184.367 880.351 182.9 881.018 181.5C881.218 181.1 881.318 180.733 881.318 180.4C881.318 179.867 881.085 179.6 880.618 179.6C880.285 179.6 879.918 179.9 879.518 180.5C879.118 181.1 878.618 181.867 878.018 182.8C873.085 190.6 868.785 196.167 865.118 199.5C861.518 202.833 857.985 204.5 854.518 204.5ZM859.118 197.3C861.251 197.3 863.785 195.933 866.718 193.2C869.651 190.4 872.618 186.767 875.618 182.3C878.285 178.367 880.518 174.3 882.318 170.1C884.118 165.9 885.018 162.367 885.018 159.5C885.018 157.367 884.485 155.733 883.418 154.6C882.418 153.467 881.018 152.9 879.218 152.9C877.018 152.9 874.518 153.933 871.718 156C868.985 158 866.251 161.267 863.518 165.8C860.785 170.267 858.518 175.933 856.718 182.8C855.851 186.2 855.418 189 855.418 191.2C855.418 193.333 855.751 194.9 856.418 195.9C857.151 196.833 858.051 197.3 859.118 197.3ZM916.826 204.5C912.892 204.5 909.792 203.233 907.526 200.7C905.259 198.1 904.126 194.533 904.126 190C904.126 187.333 904.592 184.3 905.526 180.9C907.326 174.7 909.992 169.267 913.526 164.6C917.059 159.867 920.926 156.267 925.126 153.8C929.326 151.267 933.259 150 936.926 150C940.392 150 943.092 150.967 945.026 152.9C947.026 154.833 948.026 157.333 948.026 160.4C948.026 161.467 947.859 162.667 947.526 164C946.859 166.667 945.792 168.633 944.326 169.9C942.859 171.167 940.492 172.2 937.226 173C932.492 174.133 929.092 174.9 927.026 175.3L920.726 176.8C918.792 177.267 917.292 178.067 916.226 179.2C915.159 180.267 914.459 181.733 914.126 183.6C913.726 185.4 913.526 187.033 913.526 188.5C913.526 191.367 914.192 193.6 915.526 195.2C916.926 196.8 918.859 197.6 921.326 197.6C923.659 197.6 926.192 196.9 928.926 195.5C931.726 194.1 934.459 191.9 937.126 188.9C937.659 188.233 938.192 187.9 938.726 187.9C939.326 187.9 939.626 188.2 939.626 188.8C939.626 189.2 939.426 189.7 939.026 190.3C936.092 194.5 932.592 197.933 928.526 200.6C924.526 203.2 920.626 204.5 916.826 204.5ZM922.926 173.8C925.992 173.333 929.026 172.5 932.026 171.3C933.759 170.567 935.159 169.633 936.226 168.5C937.292 167.367 938.126 165.733 938.726 163.6C939.126 162.067 939.326 160.7 939.326 159.5C939.326 157.7 938.859 156.3 937.926 155.3C937.059 154.3 935.859 153.8 934.326 153.8C931.726 153.8 928.992 154.933 926.126 157.2C923.259 159.467 921.192 162.4 919.926 166C919.192 167.8 918.826 169.4 918.826 170.8C918.826 173.2 920.192 174.2 922.926 173.8ZM955.743 204.5C953.343 204.5 951.21 204.1 949.343 203.3C947.543 202.5 946.176 201.533 945.243 200.4C944.243 199.2 943.743 198.033 943.743 196.9C943.743 195.567 944.343 194.367 945.543 193.3C946.743 192.167 948.01 191.6 949.343 191.6C950.21 191.6 950.91 191.9 951.443 192.5C951.976 193.033 952.676 193.967 953.543 195.3C954.676 196.967 955.71 198.2 956.643 199C957.576 199.8 958.843 200.2 960.443 200.2C962.243 200.2 963.81 199.633 965.143 198.5C966.543 197.367 967.51 195.7 968.043 193.5C968.243 192.767 968.343 192.067 968.343 191.4C968.343 189.533 967.91 187.667 967.043 185.8C966.176 183.867 964.81 181.333 962.943 178.2C961.476 175.667 960.376 173.567 959.643 171.9C958.976 170.167 958.643 168.467 958.643 166.8C958.643 165.933 958.81 164.833 959.143 163.5C959.743 161.3 960.976 159.167 962.843 157.1C964.776 154.967 967.01 153.267 969.543 152C972.076 150.667 974.51 150 976.843 150C978.91 150 980.743 150.4 982.343 151.2C984.01 151.933 985.31 152.9 986.243 154.1C987.176 155.3 987.643 156.5 987.643 157.7C987.643 158.167 987.61 158.5 987.543 158.7C987.21 159.967 986.576 161 985.643 161.8C984.71 162.533 983.71 162.9 982.643 162.9C981.843 162.9 981.176 162.633 980.643 162.1C980.176 161.5 979.71 160.633 979.243 159.5C977.576 155.9 975.476 154.1 972.943 154.1C970.943 154.1 969.31 154.733 968.043 156C966.843 157.267 966.243 159.033 966.243 161.3C966.243 162.7 966.543 164.1 967.143 165.5C967.743 166.833 968.71 168.633 970.043 170.9L971.343 173C973.21 176.067 974.51 178.467 975.243 180.2C976.043 181.867 976.443 183.8 976.443 186C976.443 187.333 976.243 188.8 975.843 190.4C975.243 192.467 973.876 194.6 971.743 196.8C969.61 199 967.076 200.833 964.143 202.3C961.276 203.767 958.476 204.5 955.743 204.5Z" fill="white"/>
<path d="M3.52794 395C2.51994 395 1.67994 394.832 1.00794 394.496C0.335938 394.16 -6.2516e-05 393.768 -6.2516e-05 393.32C-6.2516e-05 392.424 1.17594 391.696 3.52794 391.136C7.22394 390.464 9.79994 389.176 11.2559 387.272C12.8239 385.368 13.7199 382.288 13.9439 378.032C14.2799 371.984 14.4479 358.936 14.4479 338.888V309.992C14.4479 305.064 14.3359 299.856 14.1119 294.368C13.8879 288.768 13.6079 284.736 13.2719 282.272C12.9359 279.808 11.9839 277.904 10.4159 276.56C8.84794 275.216 6.71994 274.208 4.03194 273.536C1.79194 272.976 0.671938 272.248 0.671938 271.352C0.671938 271.016 0.951938 270.68 1.51194 270.344C2.07194 269.896 2.91194 269.616 4.03194 269.504L12.5999 268.16C23.4639 266.704 31.2479 265.36 35.9519 264.128C36.8479 263.904 37.5199 263.792 37.9679 263.792C39.3119 263.792 39.9839 264.352 39.9839 265.472C39.9839 267.488 39.7039 270.456 39.1439 274.376C38.6959 278.856 38.4719 281.712 38.4719 282.944C38.4719 283.392 38.5839 283.784 38.8079 284.12C39.0319 284.344 39.3119 284.456 39.6479 284.456C40.4319 284.456 40.9919 283.952 41.3279 282.944C43.1199 277.232 45.9759 272.64 49.8959 269.168C53.9279 265.696 58.9679 263.96 65.0159 263.96C74.1999 263.96 81.4239 267.6 86.6879 274.88C91.9519 282.048 94.5839 292.408 94.5839 305.96C94.5839 316.824 93.1279 326.008 90.2159 333.512C87.3039 340.904 83.3279 346.448 78.2879 350.144C73.3599 353.728 67.8719 355.52 61.8239 355.52C57.5679 355.52 54.2079 354.904 51.7439 353.672C49.2799 352.552 46.8719 350.928 44.5199 348.8C43.0639 347.456 41.9999 346.784 41.3279 346.784C40.4319 346.784 39.9839 347.848 39.9839 349.976L40.1519 377.696C40.1519 381.616 41.2719 384.64 43.5119 386.768C45.7519 389.008 49.5599 390.52 54.9359 391.304C55.8319 391.416 56.5599 391.64 57.1199 391.976C57.6799 392.424 57.9599 392.872 57.9599 393.32C57.9599 393.88 57.6799 394.328 57.1199 394.664C56.5599 395 55.7759 395.112 54.7679 395C46.3679 394.216 37.1279 393.824 27.0479 393.824C22.5679 393.824 16.7999 394.104 9.74394 394.664L3.52794 395ZM52.5839 345.272C56.7279 345.272 60.1999 342.584 62.9999 337.208C65.9119 331.72 67.3679 323.544 67.3679 312.68C67.3679 301.256 66.1359 292.688 63.6719 286.976C61.2079 281.264 57.8479 278.408 53.5919 278.408C49.6719 278.408 46.4239 280.872 43.8479 285.8C41.2719 290.728 39.9839 298.176 39.9839 308.144L40.1519 324.944C40.2639 332 41.5519 337.152 44.0159 340.4C46.4799 343.648 49.3359 345.272 52.5839 345.272ZM127.302 355.52C121.366 355.52 116.158 354.176 111.678 351.488C107.198 348.688 104.958 344.712 104.958 339.56C104.958 335.416 106.414 331.664 109.326 328.304C112.238 324.832 115.654 321.92 119.574 319.568C123.494 317.104 128.31 314.416 134.022 311.504C136.71 310.272 139.174 308.984 141.414 307.64C144.662 305.736 146.846 303.888 147.966 302.096C149.198 300.192 149.814 297.616 149.814 294.368V280.088C149.814 276.056 149.31 273.2 148.302 271.52C147.294 269.84 145.894 269 144.102 269C141.862 269 139.79 270.288 137.886 272.864C136.094 275.44 134.638 279.304 133.518 284.456C131.838 291.624 129.598 296.496 126.798 299.072C123.998 301.648 120.358 302.936 115.878 302.936C112.742 302.936 110.222 302.208 108.318 300.752C106.414 299.184 105.462 297.224 105.462 294.872C105.462 293.304 105.854 291.736 106.638 290.168C108.878 285.8 112.462 281.6 117.39 277.568C122.318 273.424 127.806 270.12 133.854 267.656C140.014 265.192 145.782 263.96 151.158 263.96C159.334 263.96 165.494 266.032 169.638 270.176C173.894 274.32 176.022 280.816 176.022 289.664V335.864C176.022 339.336 176.302 341.968 176.862 343.76C177.422 345.552 178.71 346.56 180.726 346.784H181.566C181.902 346.784 183.302 346.56 185.766 346.112L186.606 345.944C187.614 345.944 188.118 346.28 188.118 346.952C188.118 347.512 187.558 348.296 186.438 349.304C181.51 353.448 176.19 355.52 170.478 355.52C164.99 355.52 160.23 353.168 156.198 348.464C155.414 347.456 154.686 346.616 154.014 345.944C153.454 345.16 152.894 344.768 152.334 344.768C151.886 344.768 151.102 345.216 149.982 346.112C146.286 349.248 142.87 351.6 139.734 353.168C136.598 354.736 132.454 355.52 127.302 355.52ZM139.902 345.44C143.038 345.44 145.446 344.432 147.126 342.416C148.918 340.4 149.814 337.6 149.814 334.016V314.36C149.814 311.56 149.142 310.16 147.798 310.16C147.238 310.16 146.398 310.496 145.278 311.168C144.158 311.728 143.038 312.568 141.918 313.688C138.67 316.6 135.982 320.016 133.854 323.936C131.838 327.744 130.83 331.384 130.83 334.856C130.83 341.912 133.854 345.44 139.902 345.44ZM202.272 389.624C198.912 389.624 195.608 388.504 192.36 386.264C189.112 384.024 186.48 381.336 184.464 378.2C182.336 375.176 181.272 372.6 181.272 370.472C181.272 368.68 182.056 367.616 183.624 367.28C185.416 367.056 186.928 366.944 188.16 366.944C189.616 366.944 193.424 367.224 199.584 367.784C204.064 368.232 206.976 368.456 208.32 368.456C213.36 368.456 217.28 367.728 220.08 366.272C222.88 364.816 225.12 361.848 226.8 357.368C227.136 356.584 227.304 355.576 227.304 354.344C227.304 352.104 226.8 349.528 225.792 346.616C224.896 343.592 223.104 338.552 220.416 331.496C219.296 328.584 218.512 326.4 218.064 324.944C208.88 300.64 202.888 284.848 200.088 277.568C199.304 275.664 198.128 274.152 196.56 273.032C195.104 271.8 193.2 270.848 190.848 270.176C188.944 269.504 187.992 268.72 187.992 267.824C187.992 267.488 188.272 267.208 188.832 266.984C189.392 266.648 190.12 266.48 191.016 266.48C194.6 266.592 199.976 266.648 207.144 266.648L239.232 266.48C243.6 266.48 248.472 266.592 253.848 266.816C258.328 267.04 261.632 267.152 263.76 267.152C267.68 267.152 272.048 266.928 276.864 266.48H277.368C278.04 266.48 278.6 266.648 279.048 266.984C279.496 267.208 279.72 267.488 279.72 267.824C279.72 268.16 279.496 268.552 279.048 269C278.6 269.336 278.04 269.56 277.368 269.672C273.672 270.568 270.144 273.2 266.784 277.568C263.536 281.936 260.176 288.656 256.704 297.728L252.672 308.816C246.624 325.28 241.248 338.944 236.544 349.808C231.952 360.56 226.688 369.856 220.752 377.696C214.816 385.648 208.656 389.624 202.272 389.624ZM245.28 316.208C247.968 309.264 250.376 302.544 252.504 296.048L254.688 289.832C255.584 287.592 256.032 285.184 256.032 282.608C256.032 278.8 254.688 275.72 252 273.368C249.424 270.904 245.672 269.672 240.744 269.672C233.24 269.672 229.488 272.08 229.488 276.896C229.488 278.128 229.712 279.36 230.16 280.592C231.84 286.304 234.864 295.6 239.232 308.48L241.752 315.704C242.312 317.384 242.928 318.224 243.6 318.224C244.272 318.224 244.832 317.552 245.28 316.208ZM313.737 355.688C302.649 355.688 293.857 354.288 287.361 351.488C285.009 350.48 283.889 348.8 284.001 346.448C284.113 345.104 284.169 342.08 284.169 337.376C284.169 330.32 283.889 324.608 283.329 320.24C283.329 319.68 283.273 319.176 283.161 318.728C283.161 317.16 283.553 316.376 284.337 316.376C285.121 316.376 286.017 317.216 287.025 318.896C293.409 329.088 298.897 336.816 303.489 342.08C308.081 347.344 312.841 349.976 317.769 349.976C320.793 349.976 323.089 349.192 324.657 347.624C326.337 345.944 327.177 343.536 327.177 340.4C327.177 337.152 325.721 334.072 322.809 331.16C319.897 328.248 315.305 324.496 309.033 319.904C303.657 315.984 299.289 312.568 295.929 309.656C292.569 306.632 289.657 303.272 287.193 299.576C284.841 295.768 283.665 291.68 283.665 287.312C283.665 280.144 286.465 274.488 292.065 270.344C297.777 266.088 305.169 263.96 314.241 263.96C322.417 263.96 328.129 264.072 331.377 264.296C334.737 264.408 337.145 264.856 338.601 265.64C340.057 266.312 341.065 267.488 341.625 269.168C342.409 271.632 342.913 276.392 343.137 283.448C343.361 288.712 343.641 292.352 343.977 294.368V295.04C343.977 295.6 343.809 296.048 343.473 296.384C343.249 296.72 342.969 296.888 342.633 296.888C341.849 296.888 341.233 296.328 340.785 295.208C337.089 287.704 332.833 281.432 328.017 276.392C323.313 271.24 318.609 268.664 313.905 268.664C311.329 268.664 309.257 269.28 307.689 270.512C306.233 271.744 305.505 273.48 305.505 275.72C305.505 279.192 306.961 282.44 309.873 285.464C312.897 288.376 317.377 291.96 323.313 296.216C328.577 300.024 332.777 303.328 335.913 306.128C339.049 308.816 341.737 312.008 343.977 315.704C346.329 319.4 347.505 323.432 347.505 327.8C347.505 333.176 346.105 337.992 343.305 342.248C340.505 346.504 336.529 349.808 331.377 352.16C326.337 354.512 320.457 355.688 313.737 355.688ZM379.794 355.52C373.858 355.52 368.65 354.176 364.17 351.488C359.69 348.688 357.45 344.712 357.45 339.56C357.45 335.416 358.906 331.664 361.818 328.304C364.73 324.832 368.146 321.92 372.066 319.568C375.986 317.104 380.802 314.416 386.514 311.504C389.202 310.272 391.666 308.984 393.906 307.64C397.154 305.736 399.338 303.888 400.458 302.096C401.69 300.192 402.306 297.616 402.306 294.368V280.088C402.306 276.056 401.802 273.2 400.794 271.52C399.786 269.84 398.386 269 396.594 269C394.354 269 392.282 270.288 390.378 272.864C388.586 275.44 387.13 279.304 386.01 284.456C384.33 291.624 382.09 296.496 379.29 299.072C376.49 301.648 372.85 302.936 368.37 302.936C365.234 302.936 362.714 302.208 360.81 300.752C358.906 299.184 357.954 297.224 357.954 294.872C357.954 293.304 358.346 291.736 359.13 290.168C361.37 285.8 364.954 281.6 369.882 277.568C374.81 273.424 380.298 270.12 386.346 267.656C392.506 265.192 398.274 263.96 403.65 263.96C411.826 263.96 417.986 266.032 422.13 270.176C426.386 274.32 428.514 280.816 428.514 289.664V335.864C428.514 339.336 428.794 341.968 429.354 343.76C429.914 345.552 431.202 346.56 433.218 346.784H434.058C434.394 346.784 435.794 346.56 438.258 346.112L439.098 345.944C440.106 345.944 440.61 346.28 440.61 346.952C440.61 347.512 440.05 348.296 438.93 349.304C434.002 353.448 428.682 355.52 422.97 355.52C417.482 355.52 412.722 353.168 408.69 348.464C407.906 347.456 407.178 346.616 406.506 345.944C405.946 345.16 405.386 344.768 404.826 344.768C404.378 344.768 403.594 345.216 402.474 346.112C398.778 349.248 395.362 351.6 392.226 353.168C389.09 354.736 384.946 355.52 379.794 355.52ZM392.394 345.44C395.53 345.44 397.938 344.432 399.618 342.416C401.41 340.4 402.306 337.6 402.306 334.016V314.36C402.306 311.56 401.634 310.16 400.29 310.16C399.73 310.16 398.89 310.496 397.77 311.168C396.65 311.728 395.53 312.568 394.41 313.688C391.162 316.6 388.474 320.016 386.346 323.936C384.33 327.744 383.322 331.384 383.322 334.856C383.322 341.912 386.346 345.44 392.394 345.44ZM471.9 387.104C462.156 387.104 454.876 385.76 450.06 383.072C445.244 380.384 442.836 376.688 442.836 371.984C442.836 368.848 444.18 365.544 446.868 362.072C449.556 358.6 453.028 355.856 457.284 353.84C459.076 352.944 459.972 352.216 459.972 351.656C459.86 351.32 459.524 350.984 458.964 350.648C458.404 350.2 457.732 349.808 456.948 349.472C453.364 348.128 450.788 346.896 449.22 345.776C447.652 344.544 446.868 342.92 446.868 340.904C446.868 334.968 452.692 329.48 464.34 324.44C468.372 322.76 469.436 321.528 467.532 320.744C460.7 318.84 455.716 315.592 452.58 311C449.556 306.408 448.044 301.312 448.044 295.712C448.044 289.664 449.5 284.288 452.412 279.584C455.436 274.768 459.748 270.96 465.348 268.16C470.948 265.36 477.668 263.96 485.508 263.96C492.34 263.96 498.332 265.304 503.484 267.992C504.828 268.664 506.284 269 507.852 269C509.644 269 511.604 268.328 513.732 266.984C514.404 266.536 516.252 265.08 519.276 262.616C521.404 260.712 523.252 259.256 524.82 258.248C526.5 257.128 528.012 256.568 529.356 256.568C531.484 256.568 533.668 257.856 535.908 260.432C538.148 263.008 539.268 265.472 539.268 267.824C539.268 269.392 538.596 270.512 537.252 271.184C536.02 271.744 534.172 272.024 531.708 272.024C530.028 272.024 527.732 271.912 524.82 271.688C523.476 271.576 521.74 271.52 519.612 271.52C515.692 271.52 513.732 272.248 513.732 273.704C513.732 274.152 514.124 274.992 514.908 276.224C517.036 278.912 518.604 281.656 519.612 284.456C520.62 287.256 521.124 290.448 521.124 294.032C521.124 300.08 519.5 305.512 516.252 310.328C513.004 315.144 508.188 318.952 501.804 321.752C495.532 324.44 488.028 325.784 479.292 325.784C474.588 325.784 470.668 326.568 467.532 328.136C464.396 329.592 462.828 331.72 462.828 334.52C462.828 336.088 463.276 337.208 464.172 337.88C465.068 338.552 466.412 338.888 468.204 338.888C470.332 338.888 472.684 338.664 475.26 338.216C477.948 337.656 481.308 336.816 485.34 335.696C491.052 334.352 495.644 333.344 499.116 332.672C502.7 332 506.396 331.664 510.204 331.664C517.708 331.664 523.644 333.176 528.012 336.2C532.38 339.112 534.564 343.928 534.564 350.648C534.564 358.04 531.54 364.48 525.492 369.968C519.556 375.456 511.772 379.656 502.14 382.568C492.62 385.592 482.54 387.104 471.9 387.104ZM478.788 370.64C493.796 370.64 504.38 369.688 510.54 367.784C516.7 365.992 519.78 363.416 519.78 360.056C519.78 357.48 517.876 355.408 514.068 353.84C510.26 352.384 504.716 351.656 497.436 351.656C470.108 351.656 456.444 355.464 456.444 363.08C456.444 365.768 458.068 367.672 461.316 368.792C464.564 370.024 470.388 370.64 478.788 370.64ZM485.508 321.08C487.412 321.08 488.98 320.464 490.212 319.232C491.556 317.888 492.564 315.368 493.236 311.672C494.02 307.864 494.412 302.376 494.412 295.208C494.412 285.24 493.404 278.24 491.388 274.208C489.484 270.176 487.132 268.16 484.332 268.16C478.172 268.16 475.092 276.84 475.092 294.2C475.092 312.12 478.564 321.08 485.508 321.08ZM580.953 355.52C574.121 355.52 567.905 353.84 562.305 350.48C556.705 347.12 552.225 342.192 548.865 335.696C545.617 329.2 543.993 321.36 543.993 312.176C543.993 302.432 545.785 293.92 549.369 286.64C552.953 279.36 557.825 273.76 563.985 269.84C570.145 265.92 577.089 263.96 584.817 263.96C591.537 263.96 597.305 265.304 602.121 267.992C607.049 270.568 610.745 273.928 613.209 278.072C615.785 282.104 617.073 286.192 617.073 290.336C617.073 293.808 616.289 296.328 614.721 297.896C613.265 299.464 610.521 300.248 606.489 300.248H576.921C574.681 300.248 573.057 300.808 572.049 301.928C571.041 303.048 570.537 304.84 570.537 307.304C570.537 318.728 572.609 327.128 576.753 332.504C581.009 337.768 586.609 340.4 593.553 340.4C597.585 340.4 601.393 339.728 604.977 338.384C608.561 336.928 611.641 334.8 614.217 332C615.337 330.88 616.177 330.32 616.737 330.32C617.185 330.32 617.409 330.6 617.409 331.16C617.409 332.168 616.849 333.624 615.729 335.528C608.225 348.856 596.633 355.52 580.953 355.52ZM577.593 296.384C582.745 296.384 586.273 296.272 588.177 296.048C590.081 295.824 591.425 295.264 592.209 294.368C592.993 293.36 593.385 291.624 593.385 289.16C593.385 281.992 592.433 276.784 590.529 273.536C588.737 270.288 586.385 268.664 583.473 268.664C580.337 268.664 577.649 270.512 575.409 274.208C573.281 277.792 572.217 283.168 572.217 290.336C572.217 292.576 572.553 294.144 573.225 295.04C574.009 295.936 575.465 296.384 577.593 296.384ZM658.597 355.688C647.509 355.688 638.717 354.288 632.221 351.488C629.869 350.48 628.749 348.8 628.861 346.448C628.973 345.104 629.029 342.08 629.029 337.376C629.029 330.32 628.749 324.608 628.189 320.24C628.189 319.68 628.133 319.176 628.021 318.728C628.021 317.16 628.413 316.376 629.197 316.376C629.981 316.376 630.877 317.216 631.885 318.896C638.269 329.088 643.757 336.816 648.349 342.08C652.941 347.344 657.701 349.976 662.629 349.976C665.653 349.976 667.949 349.192 669.517 347.624C671.197 345.944 672.037 343.536 672.037 340.4C672.037 337.152 670.581 334.072 667.669 331.16C664.757 328.248 660.165 324.496 653.893 319.904C648.517 315.984 644.149 312.568 640.789 309.656C637.429 306.632 634.517 303.272 632.053 299.576C629.701 295.768 628.525 291.68 628.525 287.312C628.525 280.144 631.325 274.488 636.925 270.344C642.637 266.088 650.029 263.96 659.101 263.96C667.277 263.96 672.989 264.072 676.237 264.296C679.597 264.408 682.005 264.856 683.461 265.64C684.917 266.312 685.925 267.488 686.485 269.168C687.269 271.632 687.773 276.392 687.997 283.448C688.221 288.712 688.501 292.352 688.837 294.368V295.04C688.837 295.6 688.669 296.048 688.333 296.384C688.109 296.72 687.829 296.888 687.493 296.888C686.709 296.888 686.093 296.328 685.645 295.208C681.949 287.704 677.693 281.432 672.877 276.392C668.173 271.24 663.469 268.664 658.765 268.664C656.189 268.664 654.117 269.28 652.549 270.512C651.093 271.744 650.365 273.48 650.365 275.72C650.365 279.192 651.821 282.44 654.733 285.464C657.757 288.376 662.237 291.96 668.173 296.216C673.437 300.024 677.637 303.328 680.773 306.128C683.909 308.816 686.597 312.008 688.837 315.704C691.189 319.4 692.365 323.432 692.365 327.8C692.365 333.176 690.965 337.992 688.165 342.248C685.365 346.504 681.389 349.808 676.237 352.16C671.197 354.512 665.317 355.688 658.597 355.688ZM109.216 499C108.096 499 107.2 498.832 106.528 498.496C105.856 498.16 105.52 497.768 105.52 497.32C105.52 496.872 105.856 496.48 106.528 496.144C107.2 495.696 108.096 495.416 109.216 495.304C113.248 494.632 115.936 493.4 117.28 491.608C118.736 489.704 119.576 486.4 119.8 481.696C120.024 478.672 120.136 471.896 120.136 461.368C120.136 444.792 119.8 433.48 119.128 427.432C118.904 425.08 118.232 423.4 117.112 422.392C116.104 421.384 114.424 420.6 112.072 420.04C109.944 419.48 108.88 418.808 108.88 418.024C108.88 417.016 109.944 416.344 112.072 416.008L117.952 415.168C121.648 414.608 125.736 413.936 130.216 413.152C134.808 412.368 138.84 411.416 142.312 410.296C142.984 410.072 143.488 409.96 143.824 409.96C145.168 409.96 145.84 410.576 145.84 411.808C145.84 412.928 145.616 415.392 145.168 419.2C144.608 422.224 144.328 424.744 144.328 426.76C144.328 427.768 144.776 428.272 145.672 428.272C146.568 428.272 147.352 427.824 148.024 426.928C151.832 421.44 155.808 417.24 159.952 414.328C164.096 411.416 169.304 409.96 175.576 409.96C182.632 409.96 187.896 412.2 191.368 416.68C194.952 421.048 196.744 427.544 196.744 436.168L196.912 481.864C196.912 486.12 197.584 489.256 198.928 491.272C200.272 493.176 203.072 494.464 207.328 495.136C208.448 495.248 209.288 495.584 209.848 496.144C210.52 496.592 210.856 497.04 210.856 497.488C210.856 497.824 210.632 498.16 210.184 498.496C209.736 498.72 209.176 498.832 208.504 498.832C206.824 498.72 203.968 498.552 199.936 498.328C195.904 497.992 191.144 497.824 185.656 497.824C183.528 497.824 181.4 497.88 179.272 497.992C177.144 498.104 175.016 498.216 172.888 498.328C166.168 498.776 161.072 499 157.6 499C153.904 499 150.096 498.832 146.176 498.496C140.128 498.048 134.864 497.824 130.384 497.824C125.344 497.824 120.584 498.048 116.104 498.496C113.64 498.832 111.344 499 109.216 499ZM157.264 495.808C161.632 495.808 164.88 494.744 167.008 492.616C169.248 490.488 170.48 487.24 170.704 482.872C171.04 476.488 171.208 467.416 171.208 455.656C171.208 449.16 171.096 443 170.872 437.176C170.648 432.024 169.696 428.328 168.016 426.088C166.336 423.736 164.04 422.56 161.128 422.56C156.536 422.672 152.784 425.584 149.872 431.296C147.072 436.896 145.728 444.232 145.84 453.304L146.008 482.704C146.008 487.52 146.904 490.936 148.696 492.952C150.488 494.856 153.344 495.808 157.264 495.808ZM256.868 501.688C250.372 501.688 243.932 500.232 237.548 497.32C231.276 494.408 226.012 489.592 221.756 482.872C217.612 476.04 215.54 467.304 215.54 456.664C215.54 446.808 217.388 438.408 221.084 431.464C224.78 424.408 229.82 419.088 236.204 415.504C242.7 411.808 250.092 409.96 258.38 409.96C266.332 409.96 273.22 411.864 279.044 415.672C284.98 419.48 289.516 424.8 292.652 431.632C295.788 438.352 297.356 446.024 297.356 454.648C297.356 464.056 295.564 472.344 291.98 479.512C288.396 486.568 283.524 492.056 277.364 495.976C271.204 499.784 264.372 501.688 256.868 501.688ZM259.388 495.976C263.084 495.976 265.828 493.904 267.62 489.76C269.524 485.616 270.476 478.392 270.476 468.088C270.476 457.224 269.692 447.816 268.124 439.864C266.668 431.8 264.652 425.696 262.076 421.552C259.612 417.408 256.812 415.336 253.676 415.336C249.532 415.336 246.564 417.744 244.772 422.56C243.092 427.264 242.252 435.664 242.252 447.76C242.252 463.776 243.876 475.816 247.124 483.88C250.372 491.944 254.46 495.976 259.388 495.976ZM337.491 501.52C330.659 501.52 325.115 499.672 320.859 495.976C316.603 492.168 314.475 485.84 314.475 476.992L314.811 431.128C314.811 424.52 312.347 420.88 307.419 420.208C304.955 419.872 303.723 419.144 303.723 418.024C303.723 416.904 304.955 416.12 307.419 415.672L315.651 414.496C325.955 413.264 333.123 411.976 337.155 410.632C338.163 410.296 339.059 410.128 339.843 410.128C340.627 410.128 341.187 410.464 341.523 411.136C341.859 411.696 341.971 412.704 341.859 414.16C340.963 425.92 340.515 436.392 340.515 445.576V453.472L340.851 472.456C341.075 481.864 344.491 486.568 351.099 486.568C359.163 486.568 363.811 477.776 365.043 460.192C365.491 453.36 365.715 444.064 365.715 432.304C365.715 427.936 364.875 424.912 363.195 423.232C361.515 421.44 359.163 420.376 356.139 420.04C355.131 419.928 354.347 419.704 353.787 419.368C353.227 419.032 352.947 418.584 352.947 418.024C352.947 417.016 354.011 416.344 356.139 416.008L364.371 414.832C370.083 414.048 374.787 413.376 378.483 412.816C382.179 412.144 385.483 411.304 388.395 410.296C389.067 409.96 389.683 409.792 390.243 409.792C390.915 409.792 391.475 410.016 391.923 410.464C392.371 410.912 392.539 411.528 392.427 412.312C391.755 420.712 391.419 434.432 391.419 453.472C391.419 458.288 391.531 463.552 391.755 469.264C391.979 474.864 392.259 478.952 392.595 481.528C393.267 486.904 396.123 489.592 401.163 489.592C403.067 489.816 404.019 490.432 404.019 491.44C404.019 491.888 403.739 492.336 403.179 492.784C402.619 493.232 401.779 493.512 400.659 493.624C398.979 494.072 395.899 494.576 391.419 495.136C380.443 497.04 373.275 498.384 369.915 499.168C369.019 499.392 368.347 499.504 367.899 499.504C366.443 499.504 365.771 498.832 365.883 497.488C366.107 495.024 366.275 492.28 366.387 489.256C366.611 486.12 366.723 483.488 366.723 481.36C366.723 479.904 366.331 479.176 365.547 479.176C364.875 479.176 364.203 479.904 363.531 481.36C360.619 488.304 357.315 493.4 353.619 496.648C349.923 499.896 344.547 501.52 337.491 501.52ZM412.134 416.008C414.822 415.56 419.078 414.888 424.902 413.992C430.726 412.984 436.494 411.752 442.206 410.296C442.766 410.184 443.326 410.072 443.886 409.96C444.67 409.96 445.286 410.184 445.734 410.632C446.182 410.968 446.35 411.528 446.238 412.312C446.014 415.336 445.79 418.92 445.566 423.064C445.454 427.208 445.398 430.568 445.398 433.144C445.398 434.152 445.902 434.656 446.91 434.656C447.358 434.656 447.638 434.544 447.75 434.32C447.974 433.984 448.198 433.592 448.422 433.144C452.118 424.52 455.982 418.528 460.014 415.168C464.158 411.696 468.134 409.96 471.942 409.96C474.07 409.96 475.806 410.744 477.15 412.312C478.606 413.88 479.278 416.232 479.166 419.368C478.83 425.864 477.71 430.4 475.806 432.976C474.014 435.552 471.382 436.896 467.91 437.008H463.878C459.174 437.12 455.702 437.456 453.462 438.016C451.222 438.576 449.43 440.144 448.086 442.72C446.854 445.296 446.238 449.496 446.238 455.32L446.406 481.864C446.406 485.672 447.358 488.696 449.262 490.936C451.166 493.176 454.638 494.632 459.678 495.304C460.91 495.416 461.806 495.696 462.366 496.144C463.038 496.592 463.374 497.04 463.374 497.488C463.374 497.936 463.094 498.328 462.534 498.664C461.974 498.888 461.246 499 460.35 499C456.654 499 452.958 498.832 449.262 498.496C443.214 498.048 437.614 497.824 432.462 497.824C429.102 497.824 425.07 498.048 420.366 498.496C418.798 498.608 417.174 498.72 415.494 498.832C413.814 498.944 412.022 499 410.118 499C408.998 499 408.102 498.832 407.43 498.496C406.87 498.16 406.59 497.768 406.59 497.32C406.59 496.872 406.87 496.424 407.43 495.976C408.102 495.528 408.998 495.248 410.118 495.136C413.478 494.576 415.886 493.4 417.342 491.608C418.91 489.704 419.806 486.792 420.03 482.872C420.366 476.264 420.534 467.36 420.534 456.16C420.534 451.12 420.422 445.744 420.198 440.032C419.974 434.32 419.694 430.232 419.358 427.768C419.022 425.416 418.238 423.736 417.006 422.728C415.886 421.608 414.262 420.824 412.134 420.376C411.126 420.152 410.286 419.816 409.614 419.368C409.054 418.92 408.774 418.472 408.774 418.024C408.774 417.016 409.894 416.344 412.134 416.008ZM487.603 416.008C490.291 415.56 494.547 414.888 500.371 413.992C506.195 412.984 511.963 411.752 517.675 410.296C518.235 410.184 518.795 410.072 519.355 409.96C520.139 409.96 520.755 410.184 521.203 410.632C521.651 410.968 521.819 411.528 521.707 412.312C521.483 415.336 521.259 418.92 521.035 423.064C520.923 427.208 520.867 430.568 520.867 433.144C520.867 434.152 521.371 434.656 522.379 434.656C522.827 434.656 523.107 434.544 523.219 434.32C523.443 433.984 523.667 433.592 523.891 433.144C527.587 424.52 531.451 418.528 535.483 415.168C539.627 411.696 543.603 409.96 547.411 409.96C549.539 409.96 551.275 410.744 552.619 412.312C554.075 413.88 554.747 416.232 554.635 419.368C554.299 425.864 553.179 430.4 551.275 432.976C549.483 435.552 546.851 436.896 543.379 437.008H539.347C534.643 437.12 531.171 437.456 528.931 438.016C526.691 438.576 524.899 440.144 523.555 442.72C522.323 445.296 521.707 449.496 521.707 455.32L521.875 481.864C521.875 485.672 522.827 488.696 524.731 490.936C526.635 493.176 530.107 494.632 535.147 495.304C536.379 495.416 537.275 495.696 537.835 496.144C538.507 496.592 538.843 497.04 538.843 497.488C538.843 497.936 538.563 498.328 538.003 498.664C537.443 498.888 536.715 499 535.819 499C532.123 499 528.427 498.832 524.731 498.496C518.683 498.048 513.083 497.824 507.931 497.824C504.571 497.824 500.539 498.048 495.835 498.496C494.267 498.608 492.643 498.72 490.963 498.832C489.283 498.944 487.491 499 485.587 499C484.467 499 483.571 498.832 482.899 498.496C482.339 498.16 482.059 497.768 482.059 497.32C482.059 496.872 482.339 496.424 482.899 495.976C483.571 495.528 484.467 495.248 485.587 495.136C488.947 494.576 491.355 493.4 492.811 491.608C494.379 489.704 495.275 486.792 495.499 482.872C495.835 476.264 496.003 467.36 496.003 456.16C496.003 451.12 495.891 445.744 495.667 440.032C495.443 434.32 495.163 430.232 494.827 427.768C494.491 425.416 493.707 423.736 492.475 422.728C491.355 421.608 489.731 420.824 487.603 420.376C486.595 420.152 485.755 419.816 485.083 419.368C484.523 418.92 484.243 418.472 484.243 418.024C484.243 417.016 485.363 416.344 487.603 416.008ZM585.416 400.216C581.496 400.216 578.024 398.76 575 395.848C571.976 392.824 570.464 389.296 570.464 385.264C570.464 381.232 571.976 377.76 575 374.848C578.024 371.824 581.496 370.312 585.416 370.312C589.448 370.312 592.976 371.824 596 374.848C599.024 377.76 600.536 381.232 600.536 385.264C600.536 389.296 599.024 392.824 596 395.848C592.976 398.76 589.448 400.216 585.416 400.216ZM560.888 499C558.424 499 557.192 498.496 557.192 497.488C557.192 497.04 557.472 496.592 558.032 496.144C558.704 495.696 559.656 495.416 560.888 495.304C564.584 494.744 567.16 493.456 568.616 491.44C570.072 489.424 570.912 486.232 571.136 481.864C571.472 476.04 571.64 467.472 571.64 456.16C571.64 449.664 571.248 442.216 570.464 433.816C569.68 427.544 566.768 423.848 561.728 422.728C559.488 422.168 558.368 421.44 558.368 420.544C558.368 419.536 559.488 418.864 561.728 418.528C574.832 416.064 585.584 413.32 593.984 410.296C594.432 410.072 594.992 409.96 595.664 409.96C597.008 409.96 597.624 411.192 597.512 413.656C597.288 418.472 597.176 432.64 597.176 456.16C597.176 459.072 597.288 464 597.512 470.944C597.736 475.648 597.848 479.288 597.848 481.864C597.96 485.784 598.688 488.808 600.032 490.936C601.376 493.064 603.896 494.464 607.592 495.136C608.712 495.248 609.608 495.584 610.28 496.144C610.952 496.592 611.288 497.04 611.288 497.488C611.288 497.824 611.064 498.16 610.616 498.496C610.168 498.72 609.552 498.832 608.768 498.832C607.424 498.72 604.904 498.552 601.208 498.328C597.512 497.992 592.136 497.824 585.08 497.824C579.48 497.824 573.32 498.104 566.6 498.664C564.696 498.776 562.792 498.888 560.888 499ZM655.637 501.52C649.141 501.52 642.925 500.008 636.989 496.984C631.165 493.848 626.405 488.976 622.709 482.368C619.013 475.648 617.165 467.08 617.165 456.664C617.165 447.816 619.013 439.864 622.709 432.808C626.405 425.64 631.501 420.04 637.997 416.008C644.605 411.976 652.053 409.96 660.341 409.96C664.933 409.96 669.245 410.856 673.277 412.648C677.309 414.44 680.613 416.848 683.189 419.872C685.877 422.896 687.445 426.144 687.893 429.616C688.005 429.952 688.061 430.512 688.061 431.296C688.061 434.768 686.605 437.792 683.693 440.368C680.781 442.832 677.701 444.064 674.453 444.064C670.981 444.064 668.573 442.72 667.229 440.032C665.997 437.232 664.989 433.2 664.205 427.936C663.533 423.456 662.749 420.152 661.853 418.024C660.957 415.784 659.333 414.664 656.981 414.664C653.061 414.664 649.813 417.912 647.237 424.408C644.773 430.792 643.541 439.528 643.541 450.616C643.541 462.6 645.613 471.56 649.757 477.496C653.901 483.32 659.165 486.232 665.549 486.232C670.141 486.232 674.117 485.448 677.477 483.88C680.949 482.2 684.197 479.68 687.221 476.32C688.453 475.088 689.349 474.472 689.909 474.472C690.357 474.472 690.581 474.752 690.581 475.312C690.581 476.208 690.189 477.384 689.405 478.84C681.677 493.96 670.421 501.52 655.637 501.52ZM723.228 400.216C719.308 400.216 715.836 398.76 712.812 395.848C709.788 392.824 708.276 389.296 708.276 385.264C708.276 381.232 709.788 377.76 712.812 374.848C715.836 371.824 719.308 370.312 723.228 370.312C727.26 370.312 730.788 371.824 733.812 374.848C736.836 377.76 738.348 381.232 738.348 385.264C738.348 389.296 736.836 392.824 733.812 395.848C730.788 398.76 727.26 400.216 723.228 400.216ZM698.7 499C696.236 499 695.004 498.496 695.004 497.488C695.004 497.04 695.284 496.592 695.844 496.144C696.516 495.696 697.468 495.416 698.7 495.304C702.396 494.744 704.972 493.456 706.428 491.44C707.884 489.424 708.724 486.232 708.948 481.864C709.284 476.04 709.452 467.472 709.452 456.16C709.452 449.664 709.06 442.216 708.276 433.816C707.492 427.544 704.58 423.848 699.54 422.728C697.3 422.168 696.18 421.44 696.18 420.544C696.18 419.536 697.3 418.864 699.54 418.528C712.644 416.064 723.396 413.32 731.796 410.296C732.244 410.072 732.804 409.96 733.476 409.96C734.82 409.96 735.436 411.192 735.324 413.656C735.1 418.472 734.988 432.64 734.988 456.16C734.988 459.072 735.1 464 735.324 470.944C735.548 475.648 735.66 479.288 735.66 481.864C735.772 485.784 736.5 488.808 737.844 490.936C739.188 493.064 741.708 494.464 745.404 495.136C746.524 495.248 747.42 495.584 748.092 496.144C748.764 496.592 749.1 497.04 749.1 497.488C749.1 497.824 748.876 498.16 748.428 498.496C747.98 498.72 747.364 498.832 746.58 498.832C745.236 498.72 742.716 498.552 739.02 498.328C735.324 497.992 729.948 497.824 722.892 497.824C717.292 497.824 711.132 498.104 704.412 498.664C702.508 498.776 700.604 498.888 698.7 499ZM791.938 501.52C785.106 501.52 778.89 499.84 773.29 496.48C767.69 493.12 763.21 488.192 759.85 481.696C756.602 475.2 754.978 467.36 754.978 458.176C754.978 448.432 756.77 439.92 760.354 432.64C763.938 425.36 768.81 419.76 774.97 415.84C781.13 411.92 788.074 409.96 795.802 409.96C802.522 409.96 808.29 411.304 813.106 413.992C818.034 416.568 821.73 419.928 824.194 424.072C826.77 428.104 828.058 432.192 828.058 436.336C828.058 439.808 827.274 442.328 825.706 443.896C824.25 445.464 821.506 446.248 817.474 446.248H787.906C785.666 446.248 784.042 446.808 783.034 447.928C782.026 449.048 781.522 450.84 781.522 453.304C781.522 464.728 783.594 473.128 787.738 478.504C791.994 483.768 797.594 486.4 804.538 486.4C808.57 486.4 812.378 485.728 815.962 484.384C819.546 482.928 822.626 480.8 825.202 478C826.322 476.88 827.162 476.32 827.722 476.32C828.17 476.32 828.394 476.6 828.394 477.16C828.394 478.168 827.834 479.624 826.714 481.528C819.21 494.856 807.618 501.52 791.938 501.52ZM788.578 442.384C793.73 442.384 797.258 442.272 799.162 442.048C801.066 441.824 802.41 441.264 803.194 440.368C803.978 439.36 804.37 437.624 804.37 435.16C804.37 427.992 803.418 422.784 801.514 419.536C799.722 416.288 797.37 414.664 794.458 414.664C791.322 414.664 788.634 416.512 786.394 420.208C784.266 423.792 783.202 429.168 783.202 436.336C783.202 438.576 783.538 440.144 784.21 441.04C784.994 441.936 786.45 442.384 788.578 442.384ZM839.845 416.008C842.533 415.56 846.789 414.888 852.613 413.992C858.437 412.984 864.205 411.752 869.917 410.296C870.477 410.184 871.037 410.072 871.597 409.96C872.381 409.96 872.997 410.184 873.445 410.632C873.893 410.968 874.061 411.528 873.949 412.312C873.725 415.336 873.501 418.92 873.277 423.064C873.165 427.208 873.109 430.568 873.109 433.144C873.109 434.152 873.613 434.656 874.621 434.656C875.069 434.656 875.349 434.544 875.461 434.32C875.685 433.984 875.909 433.592 876.133 433.144C879.829 424.52 883.693 418.528 887.725 415.168C891.869 411.696 895.845 409.96 899.653 409.96C901.781 409.96 903.517 410.744 904.861 412.312C906.317 413.88 906.989 416.232 906.877 419.368C906.541 425.864 905.421 430.4 903.517 432.976C901.725 435.552 899.093 436.896 895.621 437.008H891.589C886.885 437.12 883.413 437.456 881.173 438.016C878.933 438.576 877.141 440.144 875.797 442.72C874.565 445.296 873.949 449.496 873.949 455.32L874.117 481.864C874.117 485.672 875.069 488.696 876.973 490.936C878.877 493.176 882.349 494.632 887.389 495.304C888.621 495.416 889.517 495.696 890.077 496.144C890.749 496.592 891.085 497.04 891.085 497.488C891.085 497.936 890.805 498.328 890.245 498.664C889.685 498.888 888.957 499 888.061 499C884.365 499 880.669 498.832 876.973 498.496C870.925 498.048 865.325 497.824 860.173 497.824C856.813 497.824 852.781 498.048 848.077 498.496C846.509 498.608 844.885 498.72 843.205 498.832C841.525 498.944 839.733 499 837.829 499C836.709 499 835.813 498.832 835.141 498.496C834.581 498.16 834.301 497.768 834.301 497.32C834.301 496.872 834.581 496.424 835.141 495.976C835.813 495.528 836.709 495.248 837.829 495.136C841.189 494.576 843.597 493.4 845.053 491.608C846.621 489.704 847.517 486.792 847.741 482.872C848.077 476.264 848.245 467.36 848.245 456.16C848.245 451.12 848.133 445.744 847.909 440.032C847.685 434.32 847.405 430.232 847.069 427.768C846.733 425.416 845.949 423.736 844.717 422.728C843.597 421.608 841.973 420.824 839.845 420.376C838.837 420.152 837.997 419.816 837.325 419.368C836.765 418.92 836.485 418.472 836.485 418.024C836.485 417.016 837.605 416.344 839.845 416.008ZM945.05 501.688C933.962 501.688 925.17 500.288 918.674 497.488C916.322 496.48 915.202 494.8 915.314 492.448C915.426 491.104 915.482 488.08 915.482 483.376C915.482 476.32 915.202 470.608 914.642 466.24C914.642 465.68 914.586 465.176 914.474 464.728C914.474 463.16 914.866 462.376 915.65 462.376C916.434 462.376 917.33 463.216 918.338 464.896C924.722 475.088 930.21 482.816 934.802 488.08C939.394 493.344 944.154 495.976 949.082 495.976C952.106 495.976 954.402 495.192 955.97 493.624C957.65 491.944 958.49 489.536 958.49 486.4C958.49 483.152 957.034 480.072 954.122 477.16C951.21 474.248 946.618 470.496 940.346 465.904C934.97 461.984 930.602 458.568 927.242 455.656C923.882 452.632 920.97 449.272 918.506 445.576C916.154 441.768 914.978 437.68 914.978 433.312C914.978 426.144 917.778 420.488 923.378 416.344C929.09 412.088 936.482 409.96 945.554 409.96C953.73 409.96 959.442 410.072 962.69 410.296C966.05 410.408 968.458 410.856 969.914 411.64C971.37 412.312 972.378 413.488 972.938 415.168C973.722 417.632 974.226 422.392 974.45 429.448C974.674 434.712 974.954 438.352 975.29 440.368V441.04C975.29 441.6 975.122 442.048 974.786 442.384C974.562 442.72 974.282 442.888 973.946 442.888C973.162 442.888 972.546 442.328 972.098 441.208C968.402 433.704 964.146 427.432 959.33 422.392C954.626 417.24 949.922 414.664 945.218 414.664C942.642 414.664 940.57 415.28 939.002 416.512C937.546 417.744 936.818 419.48 936.818 421.72C936.818 425.192 938.274 428.44 941.186 431.464C944.21 434.376 948.69 437.96 954.626 442.216C959.89 446.024 964.09 449.328 967.226 452.128C970.362 454.816 973.05 458.008 975.29 461.704C977.642 465.4 978.818 469.432 978.818 473.8C978.818 479.176 977.418 483.992 974.618 488.248C971.818 492.504 967.842 495.808 962.69 498.16C957.65 500.512 951.77 501.688 945.05 501.688Z" fill="white"/>
</svg>
